<svg width="494" height="182" viewBox="0 0 494 182" fill="none" xmlns="http://www.w3.org/2000/svg">
<path d="M189.623 53.6331V26.8332H192.764L204.791 47.0863H203.106L214.98 26.8332H218.121L218.159 53.6331H214.482L214.444 32.6143H215.325L204.753 50.3789H202.991L192.343 32.6143H193.3V53.6331H189.623ZM234.709 53.8628C232.539 53.8628 230.624 53.4162 228.964 52.5228C227.329 51.6296 226.053 50.4044 225.133 48.8475C224.239 47.2905 223.793 45.5038 223.793 43.4875C223.793 41.4711 224.227 39.6844 225.095 38.1275C225.989 36.5705 227.202 35.3581 228.734 34.4903C230.291 33.597 232.041 33.1503 233.981 33.1503C235.948 33.1503 237.684 33.5842 239.191 34.452C240.697 35.3198 241.872 36.545 242.715 38.1275C243.583 39.6844 244.017 41.5093 244.017 43.6023C244.017 43.7555 244.004 43.9341 243.979 44.1383C243.979 44.3425 243.966 44.5339 243.94 44.7126H226.665V42.0709H242.025L240.531 42.9897C240.557 41.688 240.289 40.5267 239.727 39.5057C239.165 38.4848 238.386 37.6935 237.39 37.132C236.42 36.545 235.284 36.2515 233.981 36.2515C232.705 36.2515 231.568 36.545 230.572 37.132C229.576 37.6935 228.798 38.4975 228.236 39.544C227.674 40.565 227.393 41.7391 227.393 43.0663V43.6789C227.393 45.0316 227.7 46.244 228.312 47.316C228.951 48.3625 229.832 49.1793 230.955 49.7663C232.079 50.3533 233.369 50.6469 234.824 50.6469C236.024 50.6469 237.109 50.4427 238.08 50.0343C239.076 49.6259 239.944 49.0133 240.684 48.1966L242.715 50.5703C241.795 51.6422 240.646 52.4591 239.267 53.0205C237.914 53.5822 236.394 53.8628 234.709 53.8628ZM274.518 33.1503C276.152 33.1503 277.595 33.4693 278.846 34.1075C280.098 34.7455 281.069 35.7155 281.758 37.0172C282.472 38.3189 282.831 39.9652 282.831 41.956V53.6331H279.153V42.3772C279.153 40.4118 278.693 38.9315 277.774 37.936C276.855 36.9406 275.565 36.4429 273.905 36.4429C272.68 36.4429 271.607 36.6981 270.688 37.2086C269.768 37.7191 269.053 38.472 268.543 39.4675C268.057 40.4629 267.815 41.7008 267.815 43.1812V53.6331H264.138V42.3772C264.138 40.4118 263.678 38.9315 262.759 37.936C261.865 36.9406 260.576 36.4429 258.89 36.4429C257.69 36.4429 256.63 36.6981 255.711 37.2086C254.792 37.7191 254.077 38.472 253.566 39.4675C253.055 40.4629 252.8 41.7008 252.8 43.1812V53.6331H249.123V33.3417H252.647V38.74L252.072 37.3617C252.711 36.0345 253.694 35.0008 255.022 34.2606C256.349 33.5204 257.894 33.1503 259.656 33.1503C261.597 33.1503 263.269 33.6353 264.674 34.6052C266.078 35.5495 266.998 36.9916 267.432 38.9315L265.938 38.3189C266.551 36.7619 267.623 35.5113 269.156 34.5669C270.688 33.6225 272.475 33.1503 274.518 33.1503ZM298.292 53.8628C296.248 53.8628 294.434 53.4162 292.853 52.5228C291.268 51.6296 290.018 50.4044 289.099 48.8475C288.18 47.265 287.72 45.4783 287.72 43.4875C287.72 41.4711 288.18 39.6844 289.099 38.1275C290.018 36.5705 291.268 35.3581 292.853 34.4903C294.434 33.597 296.248 33.1503 298.292 33.1503C300.308 33.1503 302.108 33.597 303.692 34.4903C305.301 35.3581 306.551 36.5705 307.446 38.1275C308.365 39.6589 308.825 41.4455 308.825 43.4875C308.825 45.5038 308.365 47.2905 307.446 48.8475C306.551 50.4044 305.301 51.6296 303.692 52.5228C302.108 53.4162 300.308 53.8628 298.292 53.8628ZM298.292 50.6469C299.594 50.6469 300.754 50.3533 301.777 49.7663C302.822 49.1793 303.64 48.3497 304.229 47.2777C304.814 46.1802 305.11 44.9168 305.11 43.4875C305.11 42.0326 304.814 40.7819 304.229 39.7355C303.64 38.6635 302.822 37.8339 301.777 37.2469C300.754 36.6598 299.594 36.3663 298.292 36.3663C296.989 36.3663 295.827 36.6598 294.806 37.2469C293.783 37.8339 292.967 38.6635 292.355 39.7355C291.742 40.7819 291.435 42.0326 291.435 43.4875C291.435 44.9168 291.742 46.1802 292.355 47.2777C292.967 48.3497 293.783 49.1793 294.806 49.7663C295.827 50.3533 296.989 50.6469 298.292 50.6469ZM313.908 53.6331V33.3417H317.432V38.8549L317.088 37.4766C317.651 36.0728 318.595 35.0008 319.922 34.2606C321.252 33.5204 322.885 33.1503 324.825 33.1503V36.7109C324.672 36.6853 324.518 36.6726 324.365 36.6726C324.239 36.6726 324.111 36.6726 323.982 36.6726C322.018 36.6726 320.458 37.2596 319.309 38.4337C318.16 39.6078 317.586 41.3052 317.586 43.5257V53.6331H313.908ZM329.358 53.6331V33.3417H333.036V53.6331H329.358ZM331.197 29.4366C330.48 29.4366 329.881 29.2069 329.397 28.7475C328.937 28.288 328.707 27.7265 328.707 27.0629C328.707 26.3737 328.937 25.7995 329.397 25.34C329.881 24.8806 330.48 24.6509 331.197 24.6509C331.911 24.6509 332.499 24.8806 332.959 25.34C333.443 25.7739 333.687 26.3227 333.687 26.9863C333.687 27.6755 333.457 28.2625 332.997 28.7475C332.538 29.2069 331.936 29.4366 331.197 29.4366ZM352.658 53.6331V49.3452L352.466 48.5412V41.2286C352.466 39.6716 352.007 38.472 351.087 37.6297C350.193 36.7619 348.841 36.328 347.027 36.328C345.826 36.328 344.652 36.5322 343.503 36.9406C342.354 37.3235 341.383 37.8467 340.592 38.5103L339.06 35.7537C340.108 34.9115 341.358 34.2733 342.814 33.8395C344.294 33.38 345.84 33.1503 347.449 33.1503C350.231 33.1503 352.376 33.8267 353.883 35.1795C355.391 36.5322 356.143 38.5996 356.143 41.3817V53.6331H352.658ZM345.993 53.8628C344.485 53.8628 343.159 53.6076 342.009 53.0971C340.885 52.5868 340.018 51.8848 339.405 50.9915C338.792 50.0726 338.486 49.0389 338.486 47.8903C338.486 46.7928 338.74 45.7973 339.252 44.904C339.788 44.0107 340.644 43.296 341.818 42.76C343.019 42.224 344.628 41.956 346.644 41.956H353.079V44.5977H346.797C344.959 44.5977 343.719 44.904 343.082 45.5166C342.444 46.1292 342.124 46.8693 342.124 47.7372C342.124 48.7326 342.521 49.5366 343.312 50.1492C344.102 50.7362 345.202 51.0297 346.606 51.0297C347.985 51.0297 349.186 50.7235 350.206 50.1109C351.254 49.4983 352.007 48.605 352.466 47.4309L353.194 49.9577C352.71 51.1573 351.853 52.1145 350.628 52.8291C349.402 53.5182 347.856 53.8628 345.993 53.8628ZM362.948 53.6331V25.2252H366.625V53.6331H362.948ZM382.187 53.8628C380.452 53.8628 378.92 53.5439 377.591 52.9056C376.288 52.2676 375.268 51.2977 374.526 49.996C373.812 48.6688 373.454 47.0097 373.454 45.0189V33.3417H377.131V44.5977C377.131 46.5886 377.604 48.0817 378.548 49.0772C379.519 50.0726 380.874 50.5703 382.608 50.5703C383.886 50.5703 384.997 50.3151 385.941 49.8046C386.887 49.2686 387.615 48.5029 388.124 47.5075C388.636 46.4865 388.89 45.2613 388.89 43.832V33.3417H392.567V53.6331H389.082V48.1583L389.656 49.6132C388.994 50.9659 387.998 52.0125 386.668 52.7525C385.342 53.4928 383.848 53.8628 382.187 53.8628ZM399.568 53.6331V25.2252H403.246V53.6331H399.568ZM189.623 91.9188V65.1188H193.453V91.9188H189.623ZM211.708 92.1485C210.022 92.1485 208.477 91.7656 207.073 90.9999C205.694 90.2088 204.583 89.0473 203.741 87.5159C202.923 85.9845 202.515 84.0702 202.515 81.7731C202.515 79.4759 202.91 77.5616 203.702 76.0302C204.519 74.4988 205.617 73.3502 206.996 72.5845C208.401 71.8188 209.971 71.4359 211.708 71.4359C213.699 71.4359 215.461 71.8699 216.994 72.7376C218.526 73.6056 219.739 74.8179 220.632 76.3748C221.526 77.9062 221.973 79.7056 221.973 81.7731C221.973 83.8405 221.526 85.6528 220.632 87.2096C219.739 88.7668 218.526 89.979 216.994 90.8468C215.461 91.7148 213.699 92.1485 211.708 92.1485ZM200.944 99.3462V71.6273H204.468V77.1022L204.239 81.8113L204.622 86.5205V99.3462H200.944ZM211.401 88.9325C212.704 88.9325 213.865 88.6391 214.887 88.0519C215.934 87.465 216.751 86.6353 217.338 85.5633C217.951 84.4659 218.258 83.2025 218.258 81.7731C218.258 80.3182 217.951 79.0676 217.338 78.0211C216.751 76.9491 215.934 76.1196 214.887 75.5325C213.865 74.9456 212.704 74.6519 211.401 74.6519C210.124 74.6519 208.962 74.9456 207.916 75.5325C206.894 76.1196 206.077 76.9491 205.464 78.0211C204.877 79.0676 204.583 80.3182 204.583 81.7731C204.583 83.2025 204.877 84.4659 205.464 85.5633C206.077 86.6353 206.894 87.465 207.916 88.0519C208.962 88.6391 210.124 88.9325 211.401 88.9325ZM235.749 92.1485C233.706 92.1485 231.892 91.7019 230.309 90.8085C228.726 89.9153 227.475 88.6902 226.556 87.1331C225.636 85.5508 225.177 83.7639 225.177 81.7731C225.177 79.7568 225.636 77.9702 226.556 76.4131C227.475 74.8562 228.726 73.6439 230.309 72.7759C231.892 71.8828 233.706 71.4359 235.749 71.4359C237.766 71.4359 239.566 71.8828 241.149 72.7759C242.758 73.6439 244.009 74.8562 244.903 76.4131C245.822 77.9445 246.282 79.7313 246.282 81.7731C246.282 83.7896 245.822 85.5762 244.903 87.1331C244.009 88.6902 242.758 89.9153 241.149 90.8085C239.566 91.7019 237.766 92.1485 235.749 92.1485ZM235.749 88.9325C237.051 88.9325 238.213 88.6391 239.234 88.0519C240.281 87.465 241.098 86.6353 241.686 85.5633C242.273 84.4659 242.567 83.2025 242.567 81.7731C242.567 80.3182 242.273 79.0676 241.686 78.0211C241.098 76.9491 240.281 76.1196 239.234 75.5325C238.213 74.9456 237.051 74.6519 235.749 74.6519C234.446 74.6519 233.284 74.9456 232.263 75.5325C231.241 76.1196 230.424 76.9491 229.811 78.0211C229.199 79.0676 228.892 80.3182 228.892 81.7731C228.892 83.2025 229.199 84.4659 229.811 85.5633C230.424 86.6353 231.241 87.465 232.263 88.0519C233.284 88.6391 234.446 88.9325 235.749 88.9325ZM258.338 92.1485C256.296 92.1485 254.712 91.5999 253.589 90.5022C252.465 89.4048 251.904 87.8351 251.904 85.7931V67.1862H255.581V85.6399C255.581 86.7376 255.849 87.5799 256.385 88.1668C256.947 88.7539 257.738 89.0473 258.76 89.0473C259.909 89.0473 260.867 88.7285 261.633 88.0902L262.782 90.7319C262.22 91.217 261.543 91.5742 260.752 91.8039C259.986 92.0336 259.181 92.1485 258.338 92.1485ZM248.456 74.6519V71.6273H261.403V74.6519H248.456ZM275.594 92.1485C273.423 92.1485 271.508 91.7019 269.848 90.8085C268.214 89.9153 266.937 88.6902 266.018 87.1331C265.124 85.5762 264.677 83.7896 264.677 81.7731C264.677 79.7568 265.111 77.9702 265.979 76.4131C266.873 74.8562 268.086 73.6439 269.618 72.7759C271.176 71.8828 272.925 71.4359 274.866 71.4359C276.832 71.4359 278.568 71.8699 280.075 72.7376C281.58 73.6056 282.757 74.8308 283.6 76.4131C284.467 77.9702 284.902 79.7951 284.902 81.8879C284.902 82.0411 284.888 82.2199 284.864 82.4239C284.864 82.6282 284.85 82.8196 284.825 82.9982H267.55V80.3565H282.91L281.416 81.2753C281.441 79.9736 281.173 78.8125 280.612 77.7913C280.049 76.7705 279.271 75.9793 278.275 75.4176C277.304 74.8308 276.168 74.5371 274.866 74.5371C273.589 74.5371 272.453 74.8308 271.457 75.4176C270.461 75.9793 269.682 76.7833 269.12 77.8296C268.558 78.8508 268.278 80.0248 268.278 81.3519V81.9645C268.278 83.3173 268.584 84.5296 269.197 85.6016C269.835 86.6482 270.716 87.465 271.84 88.0519C272.963 88.6391 274.253 88.9325 275.709 88.9325C276.908 88.9325 277.994 88.7285 278.964 88.3199C279.96 87.9116 280.828 87.2991 281.569 86.4822L283.6 88.8559C282.68 89.9279 281.531 90.7448 280.152 91.3062C278.798 91.8679 277.279 92.1485 275.594 92.1485ZM295.829 92.1485C294.144 92.1485 292.535 91.9188 291.003 91.4593C289.496 90.9999 288.308 90.4385 287.441 89.7748L288.973 86.8651C289.84 87.4522 290.913 87.9499 292.19 88.3582C293.468 88.7668 294.77 88.9708 296.097 88.9708C297.807 88.9708 299.033 88.7285 299.775 88.2433C300.541 87.7585 300.924 87.0822 300.924 86.2142C300.924 85.5762 300.694 85.0785 300.234 84.7211C299.775 84.3639 299.162 84.0959 298.396 83.9171C297.654 83.7385 296.825 83.5853 295.906 83.4576C294.987 83.3045 294.067 83.1259 293.148 82.9216C292.229 82.6919 291.386 82.3856 290.62 82.0028C289.854 81.5945 289.241 81.0456 288.781 80.3565C288.322 79.6419 288.092 78.6976 288.092 77.5233C288.092 76.2982 288.437 75.2262 289.126 74.3073C289.816 73.3885 290.787 72.6868 292.037 72.2016C293.315 71.6913 294.82 71.4359 296.557 71.4359C297.884 71.4359 299.225 71.6019 300.579 71.9336C301.958 72.2399 303.082 72.6868 303.95 73.2736L302.379 76.1833C301.46 75.5708 300.502 75.1496 299.506 74.9199C298.511 74.6902 297.515 74.5753 296.519 74.5753C294.91 74.5753 293.709 74.8433 292.918 75.3793C292.128 75.8899 291.731 76.5536 291.731 77.3702C291.731 78.0593 291.961 78.5953 292.42 78.9782C292.905 79.3356 293.517 79.6165 294.259 79.8205C295.025 80.0248 295.868 80.2033 296.787 80.3565C297.706 80.4842 298.625 80.6628 299.545 80.8925C300.464 81.0968 301.293 81.3902 302.034 81.7731C302.8 82.1559 303.413 82.6919 303.873 83.3811C304.357 84.0702 304.601 84.9891 304.601 86.1376C304.601 87.3628 304.242 88.4222 303.528 89.3153C302.814 90.2088 301.805 90.9108 300.502 91.4211C299.2 91.9062 297.643 92.1485 295.829 92.1485ZM295.063 100.495C294.398 100.495 293.785 100.418 293.225 100.265C292.664 100.138 292.138 99.9333 291.654 99.6525L292.459 97.7765C292.866 98.0062 293.277 98.1722 293.684 98.2742C294.119 98.3765 294.579 98.4273 295.063 98.4273C295.805 98.4273 296.341 98.287 296.672 98.0062C297.03 97.7511 297.208 97.3811 297.208 96.8959C297.208 96.4365 297.03 96.0665 296.672 95.7856C296.341 95.5305 295.791 95.4028 295.025 95.4028H293.991L294.948 91.6508H297.055L296.48 93.8331C297.578 93.9353 298.409 94.2799 298.97 94.8668C299.531 95.4539 299.813 96.1685 299.813 97.0108C299.813 98.0828 299.378 98.9251 298.51 99.5376C297.643 100.176 296.494 100.495 295.063 100.495ZM316.168 92.1485C314.125 92.1485 312.54 91.5999 311.419 90.5022C310.294 89.4048 309.733 87.8351 309.733 85.7931V67.1862H313.411V85.6399C313.411 86.7376 313.679 87.5799 314.215 88.1668C314.776 88.7539 315.566 89.0473 316.59 89.0473C317.739 89.0473 318.696 88.7285 319.462 88.0902L320.612 90.7319C320.048 91.217 319.372 91.5742 318.581 91.8039C317.815 92.0336 317.011 92.1485 316.168 92.1485ZM306.286 74.6519V71.6273H319.233V74.6519H306.286ZM325.057 91.9188V71.6273H328.735V91.9188H325.057ZM326.896 67.7222C326.179 67.7222 325.58 67.4925 325.096 67.0331C324.636 66.5736 324.406 66.0122 324.406 65.3485C324.406 64.6593 324.636 64.0851 325.096 63.6256C325.58 63.1662 326.179 62.9365 326.896 62.9365C327.61 62.9365 328.198 63.1662 328.658 63.6256C329.142 64.0596 329.386 64.6085 329.386 65.2719C329.386 65.9611 329.156 66.5482 328.696 67.0331C328.237 67.4925 327.635 67.7222 326.896 67.7222Z" fill="black"/>
<path d="M189.623 154.817V128.017H192.764L204.791 148.27H203.106L214.98 128.017H218.121L218.159 154.817H214.482L214.444 133.798H215.325L204.753 151.562H202.991L192.343 133.798H193.3V154.817H189.623ZM225.67 154.817V134.525H229.347V154.817H225.67ZM227.508 130.62C226.793 130.62 226.193 130.39 225.708 129.931C225.248 129.472 225.018 128.91 225.018 128.246C225.018 127.557 225.248 126.983 225.708 126.524C226.193 126.064 226.793 125.834 227.508 125.834C228.223 125.834 228.81 126.064 229.27 126.524C229.755 126.958 229.998 127.506 229.998 128.17C229.998 128.859 229.768 129.446 229.308 129.931C228.849 130.39 228.249 130.62 227.508 130.62ZM247.207 134.334C248.867 134.334 250.323 134.653 251.574 135.291C252.851 135.929 253.847 136.899 254.561 138.201C255.277 139.502 255.634 141.149 255.634 143.14V154.817H251.957V143.561C251.957 141.596 251.472 140.115 250.501 139.12C249.557 138.124 248.216 137.626 246.479 137.626C245.177 137.626 244.041 137.882 243.07 138.392C242.1 138.903 241.347 139.656 240.811 140.651C240.3 141.646 240.045 142.884 240.045 144.365V154.817H236.367V126.409H240.045V140L239.317 138.545C239.981 137.218 241.002 136.184 242.381 135.444C243.76 134.704 245.369 134.334 247.207 134.334ZM275.041 154.817V150.529L274.849 149.725V142.412C274.849 140.855 274.39 139.656 273.47 138.813C272.577 137.946 271.223 137.512 269.41 137.512C268.21 137.512 267.036 137.716 265.886 138.124C264.737 138.507 263.767 139.03 262.975 139.694L261.443 136.937C262.49 136.095 263.741 135.457 265.197 135.023C266.678 134.564 268.223 134.334 269.832 134.334C272.615 134.334 274.76 135.01 276.267 136.363C277.773 137.716 278.527 139.783 278.527 142.565V154.817H275.041ZM268.376 155.046C266.87 155.046 265.542 154.791 264.393 154.281C263.269 153.77 262.401 153.068 261.788 152.175C261.175 151.256 260.869 150.222 260.869 149.074C260.869 147.976 261.124 146.981 261.635 146.088C262.171 145.194 263.027 144.48 264.201 143.944C265.401 143.408 267.01 143.14 269.027 143.14H275.462V145.781H269.181C267.342 145.781 266.104 146.088 265.465 146.7C264.827 147.313 264.508 148.053 264.508 148.921C264.508 149.916 264.903 150.72 265.695 151.333C266.487 151.92 267.585 152.213 268.989 152.213C270.368 152.213 271.568 151.907 272.59 151.294C273.637 150.682 274.39 149.789 274.849 148.614L275.577 151.141C275.092 152.341 274.237 153.298 273.011 154.013C271.785 154.702 270.24 155.046 268.376 155.046ZM285.331 154.817V134.525H289.009V154.817H285.331ZM287.17 130.62C286.456 130.62 285.854 130.39 285.37 129.931C284.91 129.472 284.68 128.91 284.68 128.246C284.68 127.557 284.91 126.983 285.37 126.524C285.854 126.064 286.456 125.834 287.17 125.834C287.884 125.834 288.472 126.064 288.932 126.524C289.416 126.958 289.66 127.506 289.66 128.17C289.66 128.859 289.43 129.446 288.97 129.931C288.511 130.39 287.911 130.62 287.17 130.62ZM310.338 139.579H324.127V142.833H310.338V139.579ZM310.683 151.486H326.311V154.817H306.852V128.017H325.774V131.348H310.683V151.486ZM357.372 134.334C359.005 134.334 360.45 134.653 361.7 135.291C362.95 135.929 363.922 136.899 364.611 138.201C365.325 139.502 365.684 141.149 365.684 143.14V154.817H362.007V143.561C362.007 141.596 361.547 140.115 360.628 139.12C359.708 138.124 358.42 137.626 356.759 137.626C355.533 137.626 354.461 137.882 353.542 138.392C352.622 138.903 351.908 139.656 351.397 140.651C350.912 141.646 350.669 142.884 350.669 144.365V154.817H346.992V143.561C346.992 141.596 346.532 140.115 345.613 139.12C344.718 138.124 343.429 137.626 341.744 137.626C340.543 137.626 339.484 137.882 338.565 138.392C337.646 138.903 336.932 139.656 336.42 140.651C335.908 141.646 335.654 142.884 335.654 144.365V154.817H331.977V134.525H335.501V139.924L334.926 138.545C335.564 137.218 336.548 136.184 337.875 135.444C339.202 134.704 340.748 134.334 342.51 134.334C344.45 134.334 346.124 134.819 347.528 135.789C348.931 136.733 349.851 138.175 350.286 140.115L348.792 139.502C349.405 137.946 350.477 136.695 352.009 135.75C353.542 134.806 355.328 134.334 357.372 134.334ZM372.45 154.817V134.525H376.127V154.817H372.45ZM374.288 130.62C373.571 130.62 372.972 130.39 372.488 129.931C372.028 129.472 371.799 128.91 371.799 128.246C371.799 127.557 372.028 126.983 372.488 126.524C372.972 126.064 373.571 125.834 374.288 125.834C375.002 125.834 375.591 126.064 376.05 126.524C376.535 126.958 376.778 127.506 376.778 128.17C376.778 128.859 376.548 129.446 376.089 129.931C375.629 130.39 375.027 130.62 374.288 130.62ZM393.987 134.334C395.648 134.334 397.103 134.653 398.354 135.291C399.631 135.929 400.627 136.899 401.341 138.201C402.055 139.502 402.414 141.149 402.414 143.14V154.817H398.737V143.561C398.737 141.596 398.253 140.115 397.281 139.12C396.337 138.124 394.997 137.626 393.259 137.626C391.957 137.626 390.822 137.882 389.85 138.392C388.879 138.903 388.127 139.656 387.59 140.651C387.079 141.646 386.824 142.884 386.824 144.365V154.817H383.147V134.525H386.671V140L386.097 138.545C386.762 137.218 387.782 136.184 389.161 135.444C390.54 134.704 392.149 134.334 393.987 134.334ZM418.258 155.046C416.088 155.046 414.173 154.6 412.512 153.706C410.879 152.813 409.601 151.588 408.682 150.031C407.79 148.474 407.341 146.688 407.341 144.671C407.341 142.655 407.776 140.868 408.644 139.311C409.538 137.754 410.75 136.542 412.282 135.674C413.842 134.781 415.59 134.334 417.53 134.334C419.497 134.334 421.235 134.768 422.739 135.636C424.247 136.504 425.421 137.729 426.263 139.311C427.133 140.868 427.566 142.693 427.566 144.786C427.566 144.939 427.555 145.118 427.527 145.322C427.527 145.526 427.516 145.718 427.489 145.896H410.214V143.254H425.574L424.08 144.173C424.107 142.872 423.839 141.71 423.276 140.689C422.715 139.668 421.935 138.877 420.939 138.316C419.971 137.729 418.832 137.435 417.53 137.435C416.255 137.435 415.117 137.729 414.121 138.316C413.125 138.877 412.348 139.681 411.785 140.728C411.224 141.749 410.942 142.923 410.942 144.25V144.862C410.942 146.215 411.248 147.428 411.861 148.5C412.501 149.546 413.382 150.363 414.504 150.95C415.629 151.537 416.917 151.83 418.373 151.83C419.574 151.83 420.66 151.626 421.629 151.218C422.624 150.81 423.494 150.197 424.233 149.38L426.263 151.754C425.344 152.826 424.195 153.643 422.816 154.204C421.464 154.766 419.943 155.046 418.258 155.046ZM438.496 155.046C436.81 155.046 435.202 154.817 433.669 154.357C432.162 153.898 430.975 153.336 430.107 152.673L431.639 149.763C432.507 150.35 433.579 150.848 434.857 151.256C436.132 151.665 437.434 151.869 438.764 151.869C440.474 151.869 441.699 151.626 442.441 151.141C443.207 150.656 443.59 149.98 443.59 149.112C443.59 148.474 443.36 147.976 442.901 147.619C442.441 147.262 441.828 146.994 441.062 146.815C440.321 146.636 439.492 146.483 438.572 146.356C437.653 146.202 436.734 146.024 435.814 145.82C434.895 145.59 434.052 145.284 433.286 144.901C432.52 144.492 431.907 143.944 431.448 143.254C430.988 142.54 430.758 141.596 430.758 140.421C430.758 139.196 431.103 138.124 431.793 137.205C432.482 136.286 433.451 135.585 434.704 135.1C435.979 134.589 437.486 134.334 439.223 134.334C440.55 134.334 441.891 134.5 443.245 134.832C444.624 135.138 445.746 135.585 446.616 136.172L445.046 139.081C444.126 138.469 443.169 138.048 442.173 137.818C441.177 137.588 440.181 137.473 439.185 137.473C437.576 137.473 436.375 137.741 435.585 138.277C434.791 138.788 434.397 139.452 434.397 140.268C434.397 140.957 434.627 141.493 435.087 141.876C435.571 142.234 436.184 142.514 436.925 142.718C437.691 142.923 438.534 143.101 439.453 143.254C440.373 143.382 441.292 143.561 442.211 143.79C443.13 143.995 443.959 144.288 444.701 144.671C445.467 145.054 446.08 145.59 446.539 146.279C447.024 146.968 447.267 147.887 447.267 149.036C447.267 150.261 446.909 151.32 446.195 152.213C445.478 153.107 444.471 153.809 443.169 154.319C441.866 154.804 440.307 155.046 438.496 155.046ZM460.709 155.046C458.641 155.046 456.791 154.6 455.155 153.706C453.546 152.813 452.282 151.588 451.363 150.031C450.444 148.474 449.984 146.688 449.984 144.671C449.984 142.655 450.444 140.868 451.363 139.311C452.282 137.754 453.546 136.542 455.155 135.674C456.791 134.781 458.641 134.334 460.709 134.334C462.547 134.334 464.184 134.704 465.612 135.444C467.067 136.159 468.192 137.231 468.982 138.66L466.186 140.46C465.524 139.464 464.706 138.737 463.735 138.277C462.791 137.792 461.77 137.55 460.671 137.55C459.344 137.55 458.156 137.844 457.108 138.43C456.063 139.018 455.232 139.847 454.619 140.919C454.006 141.966 453.699 143.216 453.699 144.671C453.699 146.126 454.006 147.389 454.619 148.461C455.232 149.533 456.063 150.363 457.108 150.95C458.156 151.537 459.344 151.83 460.671 151.83C461.77 151.83 462.791 151.601 463.735 151.141C464.706 150.656 465.524 149.916 466.186 148.921L468.982 150.682C468.192 152.086 467.067 153.17 465.612 153.936C464.184 154.676 462.547 155.046 460.709 155.046ZM482.285 155.046C480.55 155.046 479.018 154.728 477.688 154.089C476.386 153.451 475.365 152.481 474.624 151.18C473.91 149.852 473.551 148.193 473.551 146.202V134.525H477.229V145.781C477.229 147.772 477.702 149.265 478.646 150.261C479.617 151.256 480.971 151.754 482.706 151.754C483.984 151.754 485.094 151.499 486.038 150.988C486.985 150.452 487.713 149.686 488.222 148.691C488.733 147.67 488.988 146.445 488.988 145.016V134.525H492.665V154.817H489.179V149.342L489.754 150.797C489.092 152.15 488.096 153.196 486.766 153.936C485.439 154.676 483.945 155.046 482.285 155.046Z" fill="black"/>
<path d="M192.539 119.375C191.401 119.375 190.38 119.127 189.475 118.631C188.585 118.121 187.885 117.428 187.374 116.553C186.863 115.663 186.608 114.649 186.608 113.512C186.608 112.359 186.863 111.346 187.374 110.471C187.885 109.595 188.585 108.91 189.475 108.414C190.38 107.918 191.401 107.67 192.539 107.67C193.517 107.67 194.4 107.86 195.188 108.239C195.976 108.618 196.596 109.187 197.048 109.946L195.888 110.733C195.494 110.15 195.005 109.72 194.422 109.442C193.838 109.165 193.203 109.027 192.518 109.027C191.7 109.027 190.964 109.216 190.307 109.595C189.65 109.96 189.132 110.478 188.753 111.149C188.373 111.82 188.184 112.607 188.184 113.512C188.184 114.416 188.373 115.204 188.753 115.874C189.132 116.545 189.65 117.071 190.307 117.45C190.964 117.814 191.7 117.996 192.518 117.996C193.203 117.996 193.838 117.858 194.422 117.581C195.005 117.304 195.494 116.881 195.888 116.312L197.048 117.099C196.596 117.843 195.976 118.412 195.188 118.806C194.4 119.185 193.517 119.375 192.539 119.375ZM204.79 119.375C203.593 119.375 202.543 119.127 201.638 118.631C200.733 118.121 200.026 117.428 199.515 116.553C199.004 115.663 198.749 114.649 198.749 113.512C198.749 112.374 198.989 111.368 199.471 110.492C199.967 109.617 200.638 108.932 201.485 108.436C202.346 107.926 203.309 107.67 204.374 107.67C205.454 107.67 206.409 107.918 207.241 108.414C208.087 108.895 208.751 109.581 209.233 110.471C209.714 111.346 209.955 112.359 209.955 113.512C209.955 113.585 209.948 113.665 209.933 113.752C209.933 113.825 209.933 113.905 209.933 113.993H199.931V112.833H209.102L208.489 113.293C208.489 112.461 208.306 111.725 207.942 111.083C207.591 110.427 207.11 109.917 206.497 109.552C205.884 109.187 205.176 109.005 204.374 109.005C203.586 109.005 202.878 109.187 202.251 109.552C201.623 109.917 201.134 110.427 200.784 111.083C200.434 111.739 200.259 112.491 200.259 113.337V113.577C200.259 114.452 200.449 115.225 200.828 115.896C201.222 116.553 201.762 117.071 202.448 117.45C203.148 117.814 203.943 117.996 204.833 117.996C205.534 117.996 206.183 117.873 206.781 117.625C207.394 117.377 207.92 116.997 208.357 116.487L209.233 117.493C208.722 118.106 208.08 118.573 207.307 118.893C206.548 119.215 205.709 119.375 204.79 119.375ZM218.984 107.67C219.918 107.67 220.735 107.853 221.436 108.217C222.151 108.567 222.705 109.107 223.099 109.836C223.508 110.565 223.712 111.484 223.712 112.593V119.265H222.158V112.746C222.158 111.535 221.851 110.624 221.239 110.011C220.64 109.384 219.794 109.07 218.7 109.07C217.883 109.07 217.167 109.238 216.555 109.574C215.957 109.895 215.489 110.369 215.154 110.996C214.833 111.608 214.672 112.352 214.672 113.227V119.265H213.118V107.78H214.607V110.93L214.366 110.339C214.731 109.508 215.314 108.859 216.117 108.392C216.92 107.911 217.875 107.67 218.984 107.67ZM231.543 119.375C230.463 119.375 229.631 119.083 229.048 118.5C228.464 117.916 228.172 117.092 228.172 116.027V105.242H229.726V115.94C229.726 116.611 229.894 117.129 230.23 117.493C230.58 117.858 231.076 118.04 231.718 118.04C232.404 118.04 232.973 117.843 233.425 117.45L233.972 118.565C233.666 118.843 233.294 119.047 232.856 119.178C232.433 119.309 231.995 119.375 231.543 119.375ZM226.115 109.07V107.78H233.228V109.07H226.115ZM236.801 119.265V107.78H238.29V110.908L238.137 110.361C238.458 109.486 238.997 108.823 239.756 108.37C240.515 107.904 241.456 107.67 242.58 107.67V109.18C242.521 109.18 242.463 109.18 242.405 109.18C242.346 109.165 242.288 109.158 242.23 109.158C241.018 109.158 240.07 109.53 239.384 110.274C238.698 111.003 238.355 112.046 238.355 113.402V119.265H236.801ZM250.336 119.375C249.358 119.375 248.505 119.193 247.775 118.828C247.045 118.463 246.476 117.916 246.068 117.187C245.674 116.458 245.477 115.546 245.477 114.452V107.78H247.031V114.277C247.031 115.502 247.33 116.429 247.928 117.056C248.541 117.668 249.395 117.975 250.489 117.975C251.292 117.975 251.985 117.814 252.569 117.493C253.167 117.158 253.619 116.677 253.926 116.049C254.246 115.422 254.407 114.671 254.407 113.796V107.78H255.961V119.265H254.473V116.115L254.713 116.684C254.349 117.53 253.78 118.193 253.006 118.675C252.248 119.141 251.357 119.375 250.336 119.375ZM260.292 119.265V103.032H261.846V119.265H260.292ZM277.764 107.67C278.698 107.67 279.515 107.853 280.216 108.217C280.932 108.567 281.485 109.107 281.879 109.836C282.289 110.565 282.491 111.484 282.491 112.593V119.265H280.937V112.746C280.937 111.535 280.631 110.624 280.019 110.011C279.421 109.384 278.574 109.07 277.48 109.07C276.663 109.07 275.948 109.238 275.335 109.574C274.737 109.895 274.27 110.369 273.934 110.996C273.613 111.608 273.453 112.352 273.453 113.227V119.265H271.899V107.78H273.387V110.93L273.146 110.339C273.511 109.508 274.095 108.859 274.897 108.392C275.7 107.911 276.656 107.67 277.764 107.67ZM293.892 119.265V116.728L293.826 116.312V112.068C293.826 111.091 293.547 110.339 292.995 109.814C292.453 109.289 291.643 109.027 290.565 109.027C289.821 109.027 289.112 109.151 288.442 109.399C287.769 109.647 287.2 109.975 286.735 110.383L286.034 109.224C286.617 108.728 287.318 108.348 288.136 108.086C288.951 107.809 289.813 107.67 290.718 107.67C292.207 107.67 293.35 108.042 294.155 108.786C294.97 109.515 295.38 110.631 295.38 112.133V119.265H293.892ZM289.93 119.375C289.069 119.375 288.316 119.236 287.676 118.959C287.047 118.668 286.565 118.274 286.231 117.778C285.895 117.267 285.728 116.684 285.728 116.027C285.728 115.43 285.865 114.89 286.144 114.409C286.434 113.913 286.902 113.519 287.545 113.227C288.201 112.921 289.077 112.768 290.171 112.768H294.133V113.927H290.215C289.104 113.927 288.333 114.124 287.895 114.518C287.471 114.912 287.26 115.4 287.26 115.984C287.26 116.64 287.515 117.165 288.026 117.559C288.535 117.953 289.252 118.15 290.171 118.15C291.047 118.15 291.796 117.953 292.426 117.559C293.066 117.151 293.534 116.567 293.826 115.809L294.177 116.881C293.884 117.639 293.372 118.245 292.645 118.697C291.928 119.149 291.025 119.375 289.93 119.375ZM303.233 119.375C302.155 119.375 301.323 119.083 300.737 118.5C300.155 117.916 299.862 117.092 299.862 116.027V105.242H301.416V115.94C301.416 116.611 301.586 117.129 301.919 117.493C302.27 117.858 302.768 118.04 303.408 118.04C304.094 118.04 304.664 117.843 305.115 117.45L305.662 118.565C305.356 118.843 304.984 119.047 304.546 119.178C304.125 119.309 303.687 119.375 303.233 119.375ZM297.805 109.07V107.78H304.918V109.07H297.805ZM302.116 124.997L302.729 122.635L302.882 123.247C302.606 123.247 302.379 123.167 302.204 123.006C302.029 122.846 301.941 122.642 301.941 122.394C301.941 122.146 302.029 121.942 302.204 121.781C302.379 121.621 302.606 121.541 302.882 121.541C303.175 121.541 303.402 121.621 303.561 121.781C303.736 121.956 303.824 122.161 303.824 122.394C303.824 122.54 303.802 122.693 303.758 122.853C303.731 123.014 303.67 123.189 303.583 123.378L302.97 124.997H302.116ZM308.491 119.265V107.78H310.045V119.265H308.491ZM309.279 105.242C308.959 105.242 308.688 105.132 308.469 104.914C308.25 104.695 308.141 104.432 308.141 104.126C308.141 103.82 308.25 103.565 308.469 103.36C308.688 103.142 308.959 103.032 309.279 103.032C309.602 103.032 309.87 103.135 310.089 103.339C310.308 103.543 310.417 103.798 310.417 104.104C310.417 104.425 310.308 104.695 310.089 104.914C309.886 105.132 309.616 105.242 309.279 105.242ZM319.055 119.375C317.944 119.375 316.945 119.127 316.056 118.631C315.181 118.121 314.486 117.428 313.977 116.553C313.465 115.663 313.211 114.649 313.211 113.512C313.211 112.359 313.465 111.346 313.977 110.471C314.486 109.595 315.181 108.91 316.056 108.414C316.932 107.918 317.93 107.67 319.055 107.67C320.193 107.67 321.2 107.918 322.075 108.414C322.964 108.91 323.657 109.595 324.154 110.471C324.663 111.346 324.921 112.359 324.921 113.512C324.921 114.649 324.663 115.663 324.154 116.553C323.657 117.428 322.964 118.121 322.075 118.631C321.183 119.127 320.176 119.375 319.055 119.375ZM319.055 117.996C319.886 117.996 320.622 117.814 321.265 117.45C321.906 117.071 322.409 116.545 322.776 115.874C323.153 115.189 323.345 114.401 323.345 113.512C323.345 112.607 323.153 111.82 322.776 111.149C322.409 110.478 321.906 109.96 321.265 109.595C320.622 109.216 319.892 109.027 319.077 109.027C318.259 109.027 317.528 109.216 316.888 109.595C316.245 109.96 315.733 110.478 315.356 111.149C314.975 111.82 314.787 112.607 314.787 113.512C314.787 114.401 314.975 115.189 315.356 115.874C315.733 116.545 316.245 117.071 316.888 117.45C317.528 117.814 318.25 117.996 319.055 117.996ZM333.957 107.67C334.893 107.67 335.708 107.853 336.409 108.217C337.126 108.567 337.678 109.107 338.072 109.836C338.483 110.565 338.685 111.484 338.685 112.593V119.265H337.131V112.746C337.131 111.535 336.825 110.624 336.212 110.011C335.615 109.384 334.767 109.07 333.673 109.07C332.858 109.07 332.141 109.238 331.528 109.574C330.931 109.895 330.464 110.369 330.127 110.996C329.807 111.608 329.646 112.352 329.646 113.227V119.265H328.092V107.78H329.58V110.93L329.339 110.339C329.706 109.508 330.289 108.859 331.09 108.392C331.895 107.911 332.849 107.67 333.957 107.67ZM350.086 119.265V116.728L350.02 116.312V112.068C350.02 111.091 349.741 110.339 349.188 109.814C348.647 109.289 347.837 109.027 346.759 109.027C346.015 109.027 345.306 109.151 344.636 109.399C343.963 109.647 343.394 109.975 342.929 110.383L342.228 109.224C342.811 108.728 343.511 108.348 344.329 108.086C345.145 107.809 346.007 107.67 346.912 107.67C348.401 107.67 349.544 108.042 350.349 108.786C351.164 109.515 351.574 110.631 351.574 112.133V119.265H350.086ZM346.124 119.375C345.262 119.375 344.51 119.236 343.87 118.959C343.241 118.668 342.759 118.274 342.425 117.778C342.089 117.267 341.922 116.684 341.922 116.027C341.922 115.43 342.059 114.89 342.338 114.409C342.628 113.913 343.096 113.519 343.738 113.227C344.395 112.921 345.271 112.768 346.365 112.768H350.327V113.927H346.409C345.298 113.927 344.526 114.124 344.089 114.518C343.665 114.912 343.454 115.4 343.454 115.984C343.454 116.64 343.708 117.165 344.22 117.559C344.729 117.953 345.446 118.15 346.365 118.15C347.24 118.15 347.99 117.953 348.619 117.559C349.26 117.151 349.727 116.567 350.02 115.809L350.37 116.881C350.078 117.639 349.566 118.245 348.838 118.697C348.121 119.149 347.219 119.375 346.124 119.375ZM355.793 119.265V103.032H357.347V119.265H355.793ZM371.976 119.375C370.882 119.375 369.897 119.127 369.021 118.631C368.16 118.135 367.481 117.45 366.986 116.574C366.488 115.685 366.242 114.664 366.242 113.512C366.242 112.345 366.488 111.324 366.986 110.449C367.481 109.574 368.16 108.895 369.021 108.414C369.897 107.918 370.882 107.67 371.976 107.67C372.983 107.67 373.88 107.896 374.668 108.348C375.47 108.801 376.105 109.464 376.573 110.339C377.054 111.2 377.295 112.257 377.295 113.512C377.295 114.751 377.06 115.809 376.595 116.684C376.127 117.559 375.492 118.23 374.69 118.697C373.902 119.149 372.997 119.375 371.976 119.375ZM372.086 117.996C372.901 117.996 373.632 117.814 374.274 117.45C374.931 117.071 375.44 116.545 375.807 115.874C376.184 115.189 376.376 114.401 376.376 113.512C376.376 112.607 376.184 111.82 375.807 111.149C375.44 110.478 374.931 109.96 374.274 109.595C373.632 109.216 372.901 109.027 372.086 109.027C371.281 109.027 370.559 109.216 369.919 109.595C369.276 109.96 368.764 110.478 368.387 111.149C368.006 111.82 367.818 112.607 367.818 113.512C367.818 114.401 368.006 115.189 368.387 115.874C368.764 116.545 369.276 117.071 369.919 117.45C370.559 117.814 371.281 117.996 372.086 117.996ZM376.419 119.265V115.809L376.573 113.49L376.354 111.171V103.032H377.908V119.265H376.419ZM387.114 119.375C385.919 119.375 384.868 119.127 383.962 118.631C383.06 118.121 382.351 117.428 381.839 116.553C381.331 115.663 381.073 114.649 381.073 113.512C381.073 112.374 381.314 111.368 381.796 110.492C382.294 109.617 382.964 108.932 383.809 108.436C384.671 107.926 385.634 107.67 386.698 107.67C387.779 107.67 388.734 107.918 389.566 108.414C390.414 108.895 391.076 109.581 391.558 110.471C392.039 111.346 392.28 112.359 392.28 113.512C392.28 113.585 392.274 113.665 392.258 113.752C392.258 113.825 392.258 113.905 392.258 113.993H382.255V112.833H391.426L390.813 113.293C390.813 112.461 390.633 111.725 390.266 111.083C389.916 110.427 389.434 109.917 388.822 109.552C388.209 109.187 387.503 109.005 386.698 109.005C385.91 109.005 385.205 109.187 384.575 109.552C383.949 109.917 383.459 110.427 383.109 111.083C382.759 111.739 382.584 112.491 382.584 113.337V113.577C382.584 114.452 382.775 115.225 383.153 115.896C383.547 116.553 384.088 117.071 384.772 117.45C385.473 117.814 386.269 117.996 387.158 117.996C387.858 117.996 388.51 117.873 389.106 117.625C389.719 117.377 390.244 116.997 390.682 116.487L391.558 117.493C391.049 118.106 390.406 118.573 389.631 118.893C388.874 119.215 388.034 119.375 387.114 119.375ZM404.258 119.375C403.311 119.375 402.414 119.243 401.566 118.981C400.72 118.704 400.055 118.361 399.574 117.953L400.274 116.728C400.742 117.078 401.341 117.384 402.069 117.646C402.8 117.894 403.566 118.018 404.367 118.018C405.462 118.018 406.25 117.851 406.731 117.515C407.213 117.165 407.453 116.706 407.453 116.137C407.453 115.714 407.317 115.386 407.038 115.152C406.775 114.905 406.425 114.722 405.987 114.605C405.549 114.474 405.062 114.365 404.52 114.277C403.981 114.19 403.442 114.088 402.901 113.971C402.375 113.854 401.894 113.687 401.456 113.468C401.018 113.235 400.663 112.921 400.384 112.527C400.121 112.133 399.99 111.608 399.99 110.952C399.99 110.325 400.165 109.763 400.515 109.267C400.865 108.772 401.377 108.385 402.047 108.108C402.734 107.816 403.566 107.67 404.542 107.67C405.286 107.67 406.031 107.773 406.775 107.977C407.519 108.166 408.132 108.421 408.613 108.742L407.935 109.989C407.426 109.639 406.879 109.391 406.293 109.245C405.711 109.085 405.128 109.005 404.542 109.005C403.508 109.005 402.742 109.187 402.244 109.552C401.763 109.902 401.522 110.354 401.522 110.908C401.522 111.346 401.653 111.689 401.916 111.936C402.195 112.184 402.551 112.381 402.988 112.527C403.442 112.658 403.929 112.768 404.455 112.855C404.996 112.943 405.527 113.052 406.053 113.183C406.594 113.3 407.081 113.468 407.519 113.687C407.973 113.891 408.329 114.19 408.592 114.584C408.871 114.963 409.007 115.466 409.007 116.093C409.007 116.764 408.819 117.348 408.438 117.843C408.074 118.325 407.535 118.704 406.819 118.981C406.118 119.243 405.265 119.375 404.258 119.375ZM415.494 119.375C414.414 119.375 413.582 119.083 412.999 118.5C412.414 117.916 412.124 117.092 412.124 116.027V105.242H413.678V115.94C413.678 116.611 413.845 117.129 414.181 117.493C414.531 117.858 415.027 118.04 415.669 118.04C416.353 118.04 416.923 117.843 417.377 117.45L417.924 118.565C417.617 118.843 417.245 119.047 416.808 119.178C416.384 119.309 415.946 119.375 415.494 119.375ZM410.066 109.07V107.78H417.18V109.07H410.066ZM425.503 119.375C424.523 119.375 423.669 119.193 422.942 118.828C422.211 118.463 421.642 117.916 421.234 117.187C420.84 116.458 420.643 115.546 420.643 114.452V107.78H422.197V114.277C422.197 115.502 422.496 116.429 423.095 117.056C423.708 117.668 424.561 117.975 425.656 117.975C426.457 117.975 427.15 117.814 427.735 117.493C428.331 117.158 428.786 116.677 429.092 116.049C429.412 115.422 429.574 114.671 429.574 113.796V107.78H431.128V119.265H429.639V116.115L429.88 116.684C429.513 117.53 428.944 118.193 428.173 118.675C427.412 119.141 426.523 119.375 425.503 119.375ZM440.033 119.375C438.939 119.375 437.954 119.127 437.078 118.631C436.217 118.135 435.538 117.45 435.043 116.574C434.545 115.685 434.299 114.664 434.299 113.512C434.299 112.345 434.545 111.324 435.043 110.449C435.538 109.574 436.217 108.895 437.078 108.414C437.954 107.918 438.939 107.67 440.033 107.67C441.04 107.67 441.937 107.896 442.725 108.348C443.527 108.801 444.162 109.464 444.63 110.339C445.111 111.2 445.352 112.257 445.352 113.512C445.352 114.751 445.117 115.809 444.651 116.684C444.184 117.559 443.549 118.23 442.747 118.697C441.959 119.149 441.054 119.375 440.033 119.375ZM440.143 117.996C440.958 117.996 441.688 117.814 442.331 117.45C442.988 117.071 443.497 116.545 443.863 115.874C444.241 115.189 444.433 114.401 444.433 113.512C444.433 112.607 444.241 111.82 443.863 111.149C443.497 110.478 442.988 109.96 442.331 109.595C441.688 109.216 440.958 109.027 440.143 109.027C439.338 109.027 438.616 109.216 437.976 109.595C437.333 109.96 436.821 110.478 436.444 111.149C436.063 111.82 435.875 112.607 435.875 113.512C435.875 114.401 436.063 115.189 436.444 115.874C436.821 116.545 437.333 117.071 437.976 117.45C438.616 117.814 439.338 117.996 440.143 117.996ZM444.476 119.265V115.809L444.63 113.49L444.411 111.171V103.032H445.965V119.265H444.476ZM450.29 119.265V107.78H451.844V119.265H450.29ZM451.078 105.242C450.758 105.242 450.487 105.132 450.268 104.914C450.049 104.695 449.94 104.432 449.94 104.126C449.94 103.82 450.049 103.565 450.268 103.36C450.487 103.142 450.758 103.032 451.078 103.032C451.401 103.032 451.669 103.135 451.888 103.339C452.107 103.543 452.216 103.798 452.216 104.104C452.216 104.425 452.107 104.695 451.888 104.914C451.686 105.132 451.415 105.242 451.078 105.242ZM456.17 119.265V107.78H457.724V119.265H456.17ZM456.958 105.242C456.638 105.242 456.367 105.132 456.148 104.914C455.929 104.695 455.82 104.432 455.82 104.126C455.82 103.82 455.929 103.565 456.148 103.36C456.367 103.142 456.638 103.032 456.958 103.032C457.278 103.032 457.549 103.135 457.768 103.339C457.987 103.543 458.096 103.798 458.096 104.104C458.096 104.425 457.987 104.695 457.768 104.914C457.562 105.132 457.294 105.242 456.958 105.242Z" fill="black"/>
<g clip-path="url(#clip0_329_14)">
<mask id="mask0_329_14" style="mask-type:luminance" maskUnits="userSpaceOnUse" x="-1" y="0" width="160" height="182">
<path d="M158.106 0H-0.81543V182H158.106V0Z" fill="white"/>
</mask>
<g mask="url(#mask0_329_14)">
<path d="M77.2728 192.727C77.2728 192.632 77.3896 192.424 77.5323 192.266C77.7399 192.035 77.7399 191.958 77.5323 191.878C77.0951 191.711 77.2228 190.946 77.688 190.946C78.1573 190.946 78.2623 191.75 77.8884 192.481C77.6747 192.898 77.2728 193.059 77.2728 192.727ZM95.1296 192.727C95.1296 192.632 95.2464 192.424 95.3891 192.266C95.5968 192.035 95.5968 191.958 95.3891 191.878C94.9519 191.711 95.0796 190.946 95.5449 190.946C96.0142 190.946 96.1191 191.75 95.7452 192.481C95.5316 192.898 95.1296 193.059 95.1296 192.727ZM9.99501 191.652C9.99331 191.563 10.4276 190.292 10.9601 188.829C11.7747 186.591 11.9976 186.169 12.3648 186.169C12.7304 186.169 12.9623 186.601 13.7934 188.83C14.3391 190.292 14.7829 191.563 14.7797 191.652C14.7765 191.742 14.6019 191.815 14.3918 191.815C14.1302 191.815 13.9233 191.541 13.7356 190.946C13.4623 190.08 13.4585 190.078 12.3753 190.078C11.3019 190.078 11.2852 190.088 10.9568 190.946C10.774 191.424 10.4835 191.815 10.3113 191.815C10.1391 191.815 9.99675 191.742 9.99501 191.652ZM13.1126 189.263C13.1125 189.174 12.9413 188.629 12.7321 188.053C12.3519 187.006 12.3519 187.006 11.9257 188.216C11.4995 189.426 11.4995 189.426 12.3061 189.426C12.7498 189.426 13.1127 189.353 13.1126 189.263ZM15.1891 189.752C15.1891 188.063 15.2456 187.689 15.5006 187.689C15.6719 187.689 15.812 187.79 15.812 187.914C15.812 188.069 15.9368 188.069 16.2136 187.914C16.9095 187.524 17.8355 187.645 18.1881 188.171C18.6406 188.847 18.6502 191.815 18.1998 191.815C17.9572 191.815 17.8884 191.524 17.8884 190.498C17.8884 188.937 17.6351 188.34 16.9721 188.34C16.2484 188.34 15.9841 188.832 15.8637 190.401C15.7874 191.395 15.671 191.815 15.4721 191.815C15.253 191.815 15.1891 191.349 15.1891 189.752ZM19.7644 191.395C19.6462 191.164 19.5495 190.382 19.5495 189.658C19.5495 188.631 19.4807 188.34 19.238 188.34C19.0667 188.34 18.9266 188.194 18.9266 188.015C18.9266 187.835 19.0605 187.689 19.2243 187.689C19.3946 187.689 19.55 187.433 19.5876 187.092C19.6267 186.736 19.7794 186.494 19.9648 186.494C20.1502 186.494 20.3028 186.736 20.3419 187.092C20.3795 187.433 20.5349 187.689 20.7053 187.689C20.869 187.689 21.003 187.835 21.003 188.015C21.003 188.194 20.8628 188.34 20.6915 188.34C20.4466 188.34 20.38 188.642 20.38 189.752C20.38 190.862 20.4466 191.164 20.6915 191.164C20.8628 191.164 21.003 191.31 21.003 191.489C21.003 191.974 20.0226 191.899 19.7644 191.395ZM21.8335 189.752C21.8335 188.063 21.89 187.689 22.145 187.689C22.4 187.689 22.4564 188.063 22.4564 189.752C22.4564 191.441 22.4 191.815 22.145 191.815C21.89 191.815 21.8335 191.441 21.8335 189.752ZM26.2878 191.287C25.7455 190.421 26.5072 189.426 27.7121 189.426C28.2765 189.426 28.7945 188.918 28.5874 188.567C28.381 188.218 27.2361 188.294 27.0995 188.666C26.9673 189.027 26.1939 189.119 26.1939 188.775C26.1939 188.655 26.3808 188.362 26.6092 188.123C27.0829 187.628 28.6457 187.517 29.0593 187.949C29.2042 188.101 29.3085 188.828 29.3085 189.687C29.3085 190.526 29.398 191.164 29.5161 191.164C29.6303 191.164 29.7237 191.31 29.7237 191.489C29.7237 191.866 29.082 191.926 28.7505 191.579C28.588 191.409 28.4857 191.409 28.3853 191.579C28.3086 191.709 27.8797 191.815 27.4323 191.815C26.7996 191.815 26.5452 191.698 26.2878 191.287ZM28.4364 190.903C28.5734 190.76 28.6856 190.454 28.6856 190.223C28.6856 189.861 28.5807 189.821 27.9248 189.933C27.0285 190.085 26.7145 190.354 26.8865 190.823C27.0349 191.228 28.0748 191.281 28.4364 190.903ZM30.3467 188.992C30.3467 186.627 30.3972 186.169 30.6581 186.169C30.919 186.169 30.9696 186.627 30.9696 188.992C30.9696 191.357 30.919 191.815 30.6581 191.815C30.3972 191.815 30.3467 191.357 30.3467 188.992ZM32.0078 189.752C32.0078 188.063 32.0642 187.689 32.3192 187.689C32.5742 187.689 32.6307 188.063 32.6307 189.752C32.6307 191.441 32.5742 191.815 32.3192 191.815C32.0642 191.815 32.0078 191.441 32.0078 189.752ZM33.7104 191.554C33.3805 191.209 33.3919 190.191 33.729 189.898C33.8762 189.771 34.3974 189.572 34.8871 189.457C35.9328 189.211 36.0453 189.123 35.8812 188.675C35.7198 188.235 34.5276 188.228 34.3669 188.666C34.2183 189.071 33.6689 189.097 33.6689 188.7C33.6689 188.163 34.4089 187.689 35.2425 187.692C36.495 187.697 36.6541 187.902 36.7475 189.631C36.793 190.474 36.9132 191.163 37.0145 191.163C37.1158 191.163 37.1987 191.31 37.1987 191.489C37.1987 191.692 37.0026 191.815 36.6796 191.815C36.3941 191.815 36.1605 191.714 36.1605 191.59C36.1605 191.435 36.0357 191.435 35.7589 191.59C35.2139 191.895 34.0163 191.874 33.7104 191.554ZM35.7037 190.903C36.0485 190.542 36.0166 189.861 35.6549 189.861C34.9818 189.861 34.2918 190.297 34.2918 190.724C34.2918 191.061 34.4278 191.164 34.8732 191.164C35.1929 191.164 35.5667 191.046 35.7037 190.903ZM37.8216 191.381C37.5932 191.142 37.4063 190.849 37.4063 190.729C37.4063 190.377 38.1812 190.481 38.3171 190.852C38.493 191.331 39.7667 191.188 39.859 190.678C39.9109 190.392 39.6932 190.236 38.9498 190.028C38.3683 189.865 37.8481 189.556 37.6655 189.265C37.3924 188.829 37.396 188.715 37.6987 188.232C38.3088 187.258 40.5209 187.61 40.5209 188.682C40.5209 189.1 39.9639 189.076 39.7348 188.648C39.6158 188.426 39.3373 188.33 38.9458 188.377C38.0256 188.486 38.1944 189.037 39.2458 189.355C39.7436 189.506 40.2809 189.742 40.4397 189.88C40.8451 190.232 40.7991 191.029 40.3488 191.456C39.8027 191.973 38.3462 191.929 37.8216 191.381ZM41.9306 191.519C41.4196 191.113 41.097 190.081 41.237 189.3C41.6286 187.117 44.4516 187.22 44.7131 189.426C44.7756 189.953 44.736 189.971 43.3759 190.033C42.4232 190.077 41.9744 190.185 41.9744 190.37C41.9744 191.124 43.3439 191.467 43.8431 190.838C44.1351 190.47 44.6737 190.399 44.6737 190.729C44.6737 190.849 44.4868 191.142 44.2584 191.381C43.7777 191.883 42.4859 191.96 41.9306 191.519ZM43.905 189.289C43.9771 189.214 43.9427 188.969 43.8285 188.746C43.4544 188.015 41.9744 188.332 41.9744 189.144C41.9744 189.436 43.6444 189.562 43.905 189.289ZM45.7269 191.243C45.069 190.368 45.0874 188.944 45.7665 188.177C46.2481 187.634 47.5255 187.501 47.9543 187.949C48.1481 188.152 48.2035 187.983 48.2035 187.189C48.2035 186.427 48.2823 186.169 48.515 186.169C48.7758 186.169 48.8264 186.627 48.8264 188.992C48.8264 191.357 48.7758 191.815 48.515 191.815C48.3437 191.815 48.2035 191.698 48.2035 191.554C48.2035 191.352 48.1481 191.352 47.9543 191.554C47.8173 191.698 47.3569 191.815 46.9312 191.815C46.3424 191.815 46.0543 191.678 45.7269 191.243ZM47.8238 190.804C48.5956 190.074 48.0847 188.34 47.0976 188.34C46.0724 188.34 45.5793 189.69 46.2427 190.681C46.6255 191.252 47.295 191.305 47.8238 190.804ZM51.9825 191.554C51.6526 191.209 51.6641 190.191 52.0011 189.898C52.1483 189.771 52.6695 189.572 53.1592 189.457C54.205 189.211 54.3174 189.123 54.1533 188.675C53.9919 188.235 52.7997 188.228 52.639 188.666C52.4905 189.071 51.941 189.097 51.941 188.7C51.941 188.163 52.681 187.689 53.5146 187.692C54.7671 187.697 54.9262 187.902 55.0196 189.631C55.0651 190.474 55.1853 191.163 55.2866 191.163C55.3879 191.163 55.4708 191.31 55.4708 191.489C55.4708 191.692 55.2747 191.815 54.9517 191.815C54.6662 191.815 54.4326 191.714 54.4326 191.59C54.4326 191.435 54.3079 191.435 54.031 191.59C53.486 191.895 52.2884 191.874 51.9825 191.554ZM53.9758 190.903C54.3206 190.542 54.2887 189.861 53.927 189.861C53.2539 189.861 52.5639 190.297 52.5639 190.724C52.5639 191.061 52.6999 191.164 53.1453 191.164C53.465 191.164 53.8388 191.046 53.9758 190.903ZM55.8861 189.752C55.8861 188.063 55.9425 187.689 56.1975 187.689C56.3688 187.689 56.509 187.851 56.509 188.048C56.509 188.383 56.5354 188.383 56.8887 188.048C57.0976 187.851 57.5585 187.689 57.9131 187.689C58.4621 187.689 58.5675 187.6 58.6235 187.092C58.6626 186.736 58.8152 186.494 59.0007 186.494C59.1861 186.494 59.3387 186.736 59.3778 187.092C59.4154 187.433 59.5708 187.689 59.7412 187.689C59.9049 187.689 60.0388 187.835 60.0388 188.015C60.0388 188.194 59.8987 188.34 59.7274 188.34C59.4825 188.34 59.4159 188.642 59.4159 189.752C59.4159 190.862 59.4825 191.164 59.7274 191.164C59.8987 191.164 60.0388 191.31 60.0388 191.489C60.0388 191.974 59.0585 191.899 58.8003 191.395C58.6821 191.164 58.5854 190.382 58.5854 189.658C58.5854 188.414 58.5578 188.34 58.0893 188.34C57.1559 188.34 56.6971 188.98 56.5686 190.462C56.4874 191.398 56.3643 191.815 56.1687 191.815C55.9501 191.815 55.8861 191.347 55.8861 189.752ZM61.597 191.56C61.2278 190.515 60.4541 188.016 60.4541 187.868C60.4541 187.497 61.2849 187.694 61.2974 188.069C61.3043 188.278 61.4733 188.986 61.6729 189.643C62.0357 190.838 62.0357 190.838 62.4093 189.263C62.6988 188.043 62.8662 187.689 63.1534 187.689C63.4406 187.689 63.608 188.043 63.8975 189.263C64.2711 190.838 64.2711 190.838 64.6339 189.643C64.8335 188.986 65.0025 188.278 65.0095 188.069C65.0172 187.838 65.1852 187.689 65.4374 187.689C65.6658 187.689 65.8513 187.713 65.8495 187.743C65.8478 187.773 65.5861 188.677 65.2681 189.752C64.809 191.304 64.6032 191.72 64.2684 191.771C63.9101 191.826 63.8068 191.646 63.5803 190.577C63.1959 188.76 63.1065 188.731 62.7375 190.298C62.508 191.272 62.2972 191.727 62.0524 191.776C61.8578 191.815 61.6529 191.718 61.597 191.56ZM67.1461 191.67C66.7694 191.511 66.268 190.416 66.268 189.752C66.268 189.034 66.7746 187.999 67.2116 187.824C67.9792 187.516 68.9888 187.692 69.4958 188.222C69.8889 188.633 70.0055 188.983 70.0055 189.752C70.0055 191.071 69.3416 191.823 68.1981 191.798C67.7646 191.788 67.2912 191.731 67.1461 191.67ZM68.9834 190.817C69.1344 190.627 69.258 190.148 69.258 189.752C69.258 188.829 68.8631 188.34 68.1186 188.34C67.46 188.34 67.0985 188.841 67.0985 189.752C67.0985 190.663 67.46 191.164 68.1186 191.164C68.4432 191.164 68.8323 191.008 68.9834 190.817ZM70.6284 189.752C70.6284 188.117 70.6894 187.689 70.9225 187.689C71.0843 187.689 71.2595 187.811 71.3118 187.96C71.388 188.177 71.462 188.177 71.6821 187.96C71.8334 187.811 72.1254 187.689 72.331 187.689C72.9086 187.689 72.7708 188.191 72.0805 188.602C71.4895 188.953 71.4589 189.041 71.4589 190.393C71.4589 191.67 71.4166 191.815 71.0436 191.815C70.6575 191.815 70.6284 191.67 70.6284 189.752ZM73.3277 188.992C73.3277 186.627 73.3782 186.169 73.6391 186.169C73.8866 186.169 73.9506 186.484 73.9506 187.703C73.9506 189.238 73.9506 189.238 74.8544 188.463C75.3515 188.037 75.9305 187.689 76.141 187.689C76.456 187.689 76.4064 187.815 75.86 188.405C75.495 188.799 75.1964 189.194 75.1964 189.282C75.1964 189.371 75.525 189.952 75.9267 190.575C76.5494 191.54 76.6045 191.718 76.3004 191.785C75.9545 191.861 75.7724 191.684 74.8735 190.395C74.3272 189.611 73.9506 189.842 73.9506 190.959C73.9506 191.575 73.8633 191.815 73.6391 191.815C73.3782 191.815 73.3277 191.357 73.3277 188.992ZM81.4255 188.992C81.4255 186.655 81.478 186.169 81.7302 186.169C81.9764 186.169 82.0461 186.637 82.0935 188.612C82.1522 191.055 82.1523 191.055 83.5538 191.119C84.6135 191.168 84.9554 191.26 84.9554 191.499C84.9554 191.751 84.5962 191.815 83.1904 191.815C81.4255 191.815 81.4255 191.815 81.4255 188.992ZM85.8346 191.382C84.9938 190.562 85.0571 188.694 85.9498 187.985C86.1452 187.83 86.6953 187.7 87.1724 187.696C87.8666 187.69 88.1257 187.803 88.4701 188.261C89.0982 189.096 89.0592 190.583 88.3908 191.282C87.739 191.964 86.4823 192.013 85.8346 191.382ZM87.9543 190.681C88.8627 189.324 87.4073 187.544 86.3198 188.682C86.1404 188.869 85.9935 189.351 85.9935 189.752C85.9935 191.07 87.2842 191.682 87.9543 190.681ZM89.9849 189.806C89.4976 188.154 89.4457 187.784 89.6926 187.722C90.0836 187.623 90.2387 187.91 90.5657 189.336C90.7141 189.983 90.8978 190.512 90.9739 190.512C91.05 190.512 91.2472 189.901 91.4121 189.155C91.6543 188.058 91.7901 187.797 92.1189 187.797C92.4477 187.797 92.5834 188.058 92.8256 189.155C93.1524 190.634 93.3485 190.837 93.5613 189.915C93.9882 188.065 94.1318 187.689 94.4109 187.689C94.8264 187.689 94.7991 187.933 94.1524 190.01C93.7312 191.363 93.4993 191.815 93.2261 191.815C92.8742 191.815 92.7715 191.563 92.3089 189.562C92.1333 188.802 91.9653 189.068 91.6058 190.675C91.4107 191.547 91.2597 191.815 90.964 191.815C90.6574 191.815 90.4546 191.399 89.9849 189.806ZM99.9815 191.43C99.3168 190.867 99.0268 190.126 99.0268 188.992C99.0268 187.447 99.6499 186.51 100.936 186.12C101.66 185.9 102.942 186.305 103.324 186.875C104.011 187.9 103.509 188.287 102.69 187.363C101.748 186.3 100.115 186.847 99.8035 188.331C99.321 190.628 101.593 192.215 102.706 190.357C102.936 189.974 103.274 189.656 103.458 189.652C103.947 189.639 103.72 190.589 103.072 191.267C102.647 191.712 102.348 191.814 101.486 191.81C100.795 191.807 100.27 191.674 99.9815 191.43ZM104.797 191.332C104.344 190.657 104.334 187.689 104.785 187.689C105.023 187.689 105.096 187.965 105.096 188.869C105.096 190.576 105.372 191.209 106.078 191.124C106.812 191.035 107.166 190.291 107.17 188.829C107.172 187.962 107.247 187.689 107.484 187.689C107.739 187.689 107.796 188.063 107.796 189.752C107.796 191.441 107.739 191.815 107.484 191.815C107.313 191.815 107.173 191.714 107.173 191.59C107.173 191.435 107.048 191.435 106.771 191.59C106.075 191.98 105.149 191.859 104.797 191.332ZM108.834 191.381C108.605 191.142 108.418 190.849 108.418 190.729C108.418 190.377 109.193 190.481 109.329 190.852C109.505 191.331 110.779 191.188 110.871 190.678C110.923 190.392 110.705 190.236 109.962 190.028C109.38 189.865 108.86 189.556 108.678 189.265C108.404 188.829 108.408 188.715 108.711 188.232C109.321 187.258 111.533 187.61 111.533 188.682C111.533 189.1 110.976 189.076 110.747 188.648C110.628 188.426 110.349 188.33 109.958 188.377C109.038 188.486 109.206 189.037 110.258 189.355C110.756 189.506 111.293 189.742 111.452 189.88C111.857 190.232 111.811 191.029 111.361 191.456C110.815 191.973 109.358 191.929 108.834 191.381ZM112.786 191.395C112.668 191.164 112.571 190.382 112.571 189.658C112.571 188.631 112.502 188.34 112.26 188.34C112.088 188.34 111.948 188.194 111.948 188.015C111.948 187.835 112.082 187.689 112.246 187.689C112.416 187.689 112.572 187.433 112.609 187.092C112.648 186.736 112.801 186.494 112.986 186.494C113.172 186.494 113.324 186.736 113.364 187.092C113.401 187.433 113.557 187.689 113.727 187.689C113.891 187.689 114.025 187.835 114.025 188.015C114.025 188.194 113.884 188.34 113.713 188.34C113.468 188.34 113.402 188.642 113.402 189.752C113.402 190.862 113.468 191.164 113.713 191.164C113.884 191.164 114.025 191.31 114.025 191.489C114.025 191.974 113.044 191.899 112.786 191.395ZM115.187 191.404C114.417 190.514 114.419 188.987 115.193 188.093C115.427 187.822 115.828 187.689 116.408 187.689C117.608 187.689 118.247 188.405 118.247 189.752C118.247 191.099 117.608 191.815 116.408 191.815C115.823 191.815 115.427 191.682 115.187 191.404ZM117.175 190.804C117.947 190.074 117.436 188.34 116.449 188.34C115.818 188.34 115.27 188.979 115.27 189.714C115.27 190.953 116.359 191.576 117.175 190.804ZM119.008 189.752C119.008 188.063 119.064 187.689 119.319 187.689C119.491 187.689 119.631 187.79 119.631 187.914C119.631 188.069 119.756 188.069 120.032 187.914C120.568 187.614 121.566 187.628 121.865 187.94C122.047 188.131 122.179 188.127 122.412 187.925C122.58 187.779 123.026 187.69 123.402 187.728C124.305 187.819 124.607 188.475 124.611 190.349C124.614 191.661 124.571 191.815 124.208 191.815C123.844 191.815 123.795 191.637 123.74 190.132C123.684 188.562 123.648 188.444 123.201 188.378C122.366 188.254 122.122 188.692 122.122 190.321C122.122 191.504 122.058 191.815 121.811 191.815C121.565 191.815 121.499 191.506 121.496 190.349C121.493 188.653 121.33 188.274 120.651 188.376C119.997 188.473 119.638 189.286 119.634 190.675C119.632 191.542 119.556 191.815 119.319 191.815C119.064 191.815 119.008 191.441 119.008 189.752ZM127.823 191.282C127.004 190.425 127.281 188.216 128.257 187.824C129.276 187.415 130.843 187.991 130.843 188.775C130.843 189.119 130.07 189.027 129.938 188.666C129.783 188.245 128.689 188.241 128.356 188.66C128.217 188.836 128.102 189.327 128.102 189.752C128.102 190.176 128.217 190.668 128.356 190.844C128.733 191.319 129.747 191.249 130.013 190.729C130.232 190.3 130.843 190.119 130.843 190.483C130.843 190.586 130.65 190.928 130.413 191.243C129.823 192.027 128.554 192.046 127.823 191.282ZM131.93 191.382C131.089 190.562 131.153 188.694 132.045 187.985C132.241 187.83 132.791 187.7 133.268 187.696C133.962 187.69 134.221 187.803 134.566 188.261C135.194 189.096 135.155 190.583 134.486 191.282C133.835 191.964 132.578 192.013 131.93 191.382ZM134.05 190.681C134.958 189.324 133.503 187.544 132.415 188.682C132.236 188.869 132.089 189.351 132.089 189.752C132.089 191.07 133.38 191.682 134.05 190.681ZM135.827 188.992C135.827 186.627 135.877 186.169 136.138 186.169C136.399 186.169 136.45 186.627 136.45 188.992C136.45 191.357 136.399 191.815 136.138 191.815C135.877 191.815 135.827 191.357 135.827 188.992ZM138.158 191.67C137.781 191.511 137.28 190.416 137.28 189.752C137.28 189.034 137.787 187.999 138.224 187.824C138.991 187.516 140.001 187.692 140.508 188.222C140.901 188.633 141.018 188.983 141.018 189.752C141.018 191.071 140.354 191.823 139.21 191.798C138.777 191.788 138.303 191.731 138.158 191.67ZM139.995 190.817C140.146 190.627 140.27 190.148 140.27 189.752C140.27 188.829 139.875 188.34 139.131 188.34C138.472 188.34 138.111 188.841 138.111 189.752C138.111 190.663 138.472 191.164 139.131 191.164C139.455 191.164 139.844 191.008 139.995 190.817ZM141.64 189.752C141.64 188.117 141.701 187.689 141.935 187.689C142.096 187.689 142.272 187.811 142.324 187.96C142.4 188.177 142.474 188.177 142.694 187.96C142.845 187.811 143.138 187.689 143.343 187.689C143.921 187.689 143.783 188.191 143.093 188.602C142.502 188.953 142.471 189.041 142.471 190.393C142.471 191.67 142.429 191.815 142.056 191.815C141.67 191.815 141.64 191.67 141.64 189.752ZM144.512 191.544C143.983 191.098 143.877 190.512 144.324 190.512C144.537 190.512 144.764 190.659 144.83 190.838C144.97 191.219 146.317 191.29 146.531 190.927C146.736 190.58 146.349 190.268 145.23 189.88C144.376 189.583 144.226 189.445 144.166 188.894C144.081 188.107 144.555 187.689 145.535 187.689C146.449 187.689 147.039 188.033 147.039 188.565C147.039 189.073 146.514 189.138 146.336 188.652C146.25 188.418 146.001 188.334 145.535 188.381C144.709 188.464 144.666 188.772 145.43 189.146C145.744 189.3 146.258 189.552 146.572 189.705C147.261 190.041 147.421 190.82 146.92 191.399C146.499 191.884 145.022 191.973 144.512 191.544ZM23.287 189.523C23.287 189.254 23.5017 189.199 24.3608 189.252C25.8987 189.346 25.971 189.861 24.4463 189.861C23.5369 189.861 23.287 189.788 23.287 189.523ZM21.8335 186.603C21.8335 186.362 21.9719 186.169 22.145 186.169C22.318 186.169 22.4564 186.362 22.4564 186.603C22.4564 186.844 22.318 187.037 22.145 187.037C21.9719 187.037 21.8335 186.844 21.8335 186.603ZM32.0078 186.603C32.0078 186.362 32.1462 186.169 32.3192 186.169C32.4922 186.169 32.6307 186.362 32.6307 186.603C32.6307 186.844 32.4922 187.037 32.3192 187.037C32.1462 187.037 32.0078 186.844 32.0078 186.603ZM77.3766 172.935C74.5946 172.762 74.2006 172.704 71.8223 172.128C70.5826 171.828 70.4207 171.73 70.4207 171.279C70.4207 170.039 71.9368 167.691 74.8743 164.38C77.3271 161.616 80.58 158.704 84.5133 155.753C86.0698 154.586 87.7169 153.332 88.1737 152.967C89.6465 151.79 93.0841 149.704 95.9602 148.243C102.048 145.149 106.431 143.809 113.402 142.911C117.361 142.4 119.539 142.539 122.434 143.487C123.348 143.787 124.289 144.033 124.525 144.035C124.794 144.037 125.599 143.349 126.667 142.204C128.667 140.062 128.671 139.881 126.739 138.975C124.22 137.792 121.165 137.306 116.309 137.315C113.075 137.32 112.278 137.407 107.484 138.271C101.557 139.34 95.3162 141.767 88.9915 145.465C85.4581 147.53 77.5641 153.501 73.696 157.034C71.1413 159.368 65.481 165.838 64.0035 168.114C63.5274 168.847 63.0676 169.447 62.9817 169.447C62.365 169.447 60.1078 168.645 58.9222 168.005C58.1367 167.581 56.919 167.008 56.2162 166.732C54.8581 166.197 50.4543 163.876 48.7226 162.782C43.3128 159.365 41.3487 157.804 36.9417 153.419C33.3552 149.85 31.6949 147.85 27.7103 142.301C24.2791 137.522 19.8784 128.127 17.7842 121.111C17.3856 119.775 16.5916 116.643 16.0197 114.15C15.0344 109.854 14.9625 109.336 14.6454 104.241C14.2314 97.591 14.4778 88.8314 15.173 85.4804C15.3996 84.3886 15.6075 83.094 15.6352 82.6036C15.6932 81.5755 15.5977 81.4735 13.4742 80.2932C9.97634 78.3491 5.8823 74.0083 3.58274 69.8054C2.19789 67.2743 0.734618 63.1052 0.341617 60.5709C-0.641886 54.2286 0.556749 46.1565 3.18448 41.4259C7.43383 33.776 13.6225 29.4462 20.9814 28.9747C25.4247 28.69 30.2495 29.3847 32.7345 30.667C34.9608 31.8159 36.5799 33.9004 36.572 35.608C36.5671 36.6752 35.2885 39.9161 34.5525 40.7268C33.7169 41.6473 32.5795 42.186 31.4717 42.186C30.9393 42.186 29.2304 41.8817 27.674 41.5098C24.5269 40.7578 21.2498 40.5863 19.5495 41.0845C18.3465 41.437 16.7025 42.5132 15.0875 44.0053C14.0935 44.9238 13.6123 45.5959 12.944 46.9996C11.6848 49.6443 11.3466 51.6457 11.3535 56.4105C11.3589 60.1229 11.3878 60.4015 11.9281 61.9483C12.6565 64.0333 13.6049 65.466 15.5096 67.3582C17.0768 68.9153 18.1692 69.4333 18.9086 68.9701C19.0898 68.8566 20.1282 66.9127 21.2163 64.6502C23.4166 60.0749 26.2294 55.1924 28.4655 52.0672C32.2323 46.8025 37.1837 41.5924 42.0782 37.7431C46.1588 34.534 51.6602 31.0777 54.4027 30.0002C55.2729 29.6583 55.7807 29.3241 55.8935 29.0191C55.9875 28.7647 56.3114 27.2011 56.6132 25.5444C58.4929 15.2274 63.1007 6.95285 68.4482 4.29205C71.041 3.0019 71.7979 2.80424 74.1582 2.80094C76.5468 2.79761 77.4893 3.01134 79.543 4.0221C82.4427 5.44925 84.8137 8.94646 85.5907 12.9426C86.0148 15.1241 86.4088 19.5847 86.4088 22.2055C86.4088 23.8788 86.4088 23.8788 88.2886 24.0184C91.5413 24.2598 96.5837 25.0285 99.3862 25.7101C107.517 27.6875 116.598 31.9408 121.986 36.2957C123.198 37.2756 123.821 37.6314 124.472 37.716C124.95 37.7781 129.546 37.887 134.685 37.958C139.824 38.029 146.177 38.1543 148.804 38.2364C154.188 38.4048 154.555 38.5048 156.022 40.2028C156.901 41.2212 157.095 42.0501 156.962 44.2241C156.841 46.1853 156.193 47.7118 154.759 49.4083C153.853 50.48 153.269 51.6938 153.271 52.5015C153.271 52.6209 152.809 54.2823 152.243 56.1934C151.203 59.7098 148.887 67.8807 148.366 69.875C148.062 71.0397 148.167 71.4887 150.373 78.4531C151.049 80.5881 151.563 83.2822 152.34 88.7686C152.836 92.2749 152.893 93.293 152.89 98.6498C152.887 105.009 152.795 105.971 151.503 113.2C150.597 118.266 147.836 126.565 145.306 131.824C143.263 136.071 141.282 139.44 138.47 143.449C137.437 144.923 137.437 144.923 138.107 146.885C138.66 148.501 138.774 149.142 138.755 150.527C138.694 154.892 136.525 159.132 133.011 161.754C131.181 163.12 129.312 163.949 126.073 164.831C123.33 165.577 123.141 165.598 117.97 165.74C115.058 165.819 112.488 165.964 112.26 166.062C112.031 166.159 111.144 166.565 110.287 166.964C107.093 168.45 103.681 169.728 101.055 170.422C98.2922 171.152 92.2824 172.301 89.1081 172.706C86.6595 173.018 80.6098 173.136 77.3766 172.935ZM90.2501 169.877C91.9232 169.733 93.5944 169.416 95.3372 168.912C96.7647 168.499 98.7736 167.959 99.8014 167.713C103.352 166.86 108.418 164.955 108.418 164.473C108.418 164.251 103.47 162.497 102.843 162.497C102.604 162.497 101.673 162.778 100.773 163.122C99.2355 163.709 97.8728 164.026 92.3265 165.091C88.3235 165.859 85.932 166.038 81.4927 165.903C76.6556 165.756 76.9028 165.673 75.262 168.004C74.431 169.185 74.3789 169.328 74.7121 169.523C75.5442 170.011 85.9449 170.247 90.2501 169.877ZM62.5704 165.375C63.3222 164.532 64.2283 162.952 64.0919 162.721C64.0289 162.615 63.0211 162.136 61.8523 161.658C57.7235 159.97 52.507 157.186 49.3455 154.985C44.9459 151.921 39.2255 146.174 34.9918 140.563C33.8124 139 30.9576 134.456 29.4665 131.768C23.883 121.704 21.0074 109.895 21.0052 97.021C21.0046 93.9664 21.4517 87.8342 21.8354 85.6341C21.9486 84.9851 22.0411 84.3292 22.0411 84.1766C22.0411 83.869 20.2083 83.2308 19.3249 83.2308C18.8208 83.2308 18.7368 83.3412 18.5402 84.2624C17.9414 87.0675 17.2678 94.3276 17.2658 97.9983C17.2639 101.434 17.825 108.275 18.3345 111.028C19.4931 117.289 20.4947 120.874 22.5458 126.1C26.3239 135.726 31.0177 143.038 38.2543 150.571C41.7389 154.198 44.5754 156.602 48.0997 158.916C52.7632 161.978 60.3827 165.955 61.6092 165.968C61.8448 165.97 62.2773 165.703 62.5704 165.375ZM127.083 161.889C131.08 160.464 133.175 158.666 134.974 155.116C135.719 153.646 135.905 153.047 135.987 151.847C136.125 149.822 135.902 148.381 135.451 148.381C134.945 148.381 131.826 151.821 130.772 153.541C129.752 155.205 128.862 155.824 126.275 156.668C124.874 157.126 124.333 157.176 120.877 157.17C114.898 157.159 109.884 156.178 105.894 154.238C104.672 153.645 103.609 153.159 103.531 153.159C103.453 153.159 102.628 152.682 101.699 152.1C100.77 151.517 99.664 150.913 99.2423 150.758C98.5174 150.49 98.3924 150.518 96.9565 151.26C96.1211 151.692 95.0674 152.38 94.6151 152.789C93.7927 153.532 93.7926 153.532 94.4092 154.109C94.7483 154.427 95.861 155.279 96.8819 156.004C100.16 158.33 103.335 159.827 108.12 161.303C112.652 162.701 114.261 162.914 119.838 162.856C124.51 162.807 124.51 162.807 127.083 161.889ZM90.3403 162.492C91.6808 162.31 97.8117 160.85 97.9814 160.673C98.0152 160.638 97.5041 160.237 96.8457 159.783C96.1874 159.33 94.7143 158.207 93.5723 157.289C90.8125 155.071 90.7355 155.032 89.8742 155.408C89.4909 155.576 88.6102 156.14 87.9171 156.662C87.2239 157.184 85.8699 158.174 84.9082 158.863C82.6078 160.509 80.8927 162.123 81.0894 162.456C81.2797 162.778 88.0389 162.804 90.3403 162.492ZM69.5536 157.414C70.7728 156.189 73.0318 154.124 74.5735 152.826C76.1152 151.527 77.9461 149.972 78.6422 149.369C79.3383 148.766 80.8166 147.554 81.9272 146.676C83.0379 145.798 83.9961 144.944 84.0566 144.779C84.1631 144.489 83.7599 143.655 81.7715 140.05C81.2535 139.111 80.5755 137.694 80.2649 136.901C79.9543 136.109 79.2974 134.434 78.8051 133.18C77.9116 130.903 76.7543 126.222 76.1204 122.321C75.9361 121.186 75.6047 119.442 75.384 118.444C75.1633 117.447 74.8379 115.69 74.661 114.54C74.484 113.389 74.3007 112.408 74.2537 112.359C73.9889 112.082 72.3022 114.56 70.0206 118.577C69.1253 120.153 69.1253 120.153 69.4616 121.553C70.3411 125.216 69.5255 129.343 67.3286 132.348C65.7876 134.456 63.9265 135.702 61.5532 136.214C58.579 136.856 56.4878 136.016 55.3702 133.731C54.7729 132.509 54.7447 132.329 54.757 129.829C54.7722 126.72 55.0154 125.63 56.6489 121.353C57.8136 118.304 57.8136 118.304 57.9753 112.874C58.0642 109.888 58.2058 105.417 58.2899 102.939C58.4125 99.3256 58.3898 98.4326 58.1755 98.4326C58.0284 98.4326 56.9512 98.8793 55.7817 99.4253C54.2875 100.123 53.5887 100.571 53.4315 100.932C53.3084 101.214 52.7782 103.773 52.2533 106.617C51.7283 109.461 50.6549 115.258 49.8679 119.498C49.0809 123.738 48.2291 128.607 47.9749 130.318C47.4412 133.91 47.2651 134.25 45.5955 134.903C43.2063 135.838 40.3532 135.25 38.7164 133.485C37.2663 131.922 37.0977 130.497 37.9351 126.882C38.2256 125.628 38.7811 122.598 39.1695 120.149C39.5579 117.701 40.0253 114.965 40.2082 114.069C40.3912 113.173 41.1403 109.02 41.8731 104.839C44.3252 90.8491 44.8977 87.6967 45.4101 85.3639C46.0005 82.6761 46.0642 81.4935 45.6187 81.4935C45.4533 81.4935 44.589 81.7308 43.6981 82.021C41.1616 82.8469 40.6432 82.9643 36.8872 83.5628C34.6744 83.9154 31.9862 84.1734 29.6823 84.2542C26.0073 84.3832 26.0073 84.3832 25.4867 86.6845C24.6427 90.4155 24.0692 97.8525 24.3378 101.582C24.8261 108.361 26.0967 114.997 27.9558 120.478C30.4246 127.757 34.8525 135.451 40.0142 141.432C45.7372 148.063 50.23 151.865 56.6897 155.545C60.8717 157.927 66.3121 160.209 66.9581 159.851C67.1664 159.736 68.3344 158.639 69.5536 157.414ZM124.033 153.784C126.306 153.28 126.8 152.851 131.594 147.232C132.999 145.585 134.481 143.777 134.888 143.214C139.437 136.919 140.915 134.509 142.975 130.031C144.858 125.936 146.069 122.666 147.116 118.846C148.208 114.861 148.502 113.358 149.262 107.879C150.564 98.4857 149.709 87.0357 147.009 77.7033C146.558 76.1449 145.917 74.1858 145.585 73.3497C145.253 72.5136 144.726 71.1454 144.412 70.3093C143.578 68.0807 140.856 62.563 139.379 60.1055C137.601 57.1456 134.257 52.2821 133.244 51.1814C132.401 50.2657 132.401 50.2657 130.411 50.1118C129.317 50.0272 128.259 49.9928 128.059 50.0353C127.774 50.0957 128.061 50.5641 129.368 52.1757C132.303 55.795 135.046 59.6153 135.997 61.4054C136.504 62.3609 137.411 63.9246 138.012 64.8801C138.906 66.3023 140.81 70.4173 140.81 70.9289C140.81 71.0017 141.411 72.8063 142.146 74.939C143.484 78.8213 145.144 85.3832 145.563 88.4429C147.402 101.864 145.155 116.439 139.375 128.601C138.056 131.375 135.781 135.56 134.818 136.98C130.691 143.071 126.024 148.335 121.672 151.811C120.453 152.784 119.396 153.681 119.323 153.804C119.141 154.112 122.618 154.098 124.033 153.784ZM114.336 152.753C115.019 152.428 119.449 149.055 121.5 147.3C122.004 146.868 122.007 146.847 121.623 146.538C120.867 145.932 118.951 145.488 117.139 145.499C112.851 145.527 103.005 147.957 103.022 148.984C103.028 149.298 107.108 151.607 108.3 151.969C109.46 152.322 112.854 153.117 113.298 153.139C113.412 153.145 113.879 152.971 114.336 152.753ZM88.2985 142.507C89.4129 141.912 91.3921 140.581 91.3921 140.426C91.3921 140.358 90.7315 139.032 89.924 137.48C88.3623 134.477 87.6512 132.677 85.9879 127.516C83.6276 120.192 82.3551 112.196 82.1196 103.21C81.9997 98.6335 82.0276 98.0627 82.5601 94.1978C83.1563 89.8695 84.1102 86.0251 85.1195 83.8823C85.6213 82.8169 85.7596 82.6802 86.3997 82.6165C87.1954 82.5374 87.6546 82.9677 87.6546 83.7925C87.6546 84.0558 87.3743 84.9601 87.0317 85.8022C86.6891 86.6443 86.4127 87.5585 86.4173 87.8337C86.425 88.2842 86.5073 88.2401 87.2394 87.3934C89.3286 84.9772 89.6857 80.1659 88.007 77.0527C87.1348 75.435 85.5425 75.5537 83.6332 77.3788C82.1856 78.7626 81.2214 80.2878 80.0551 83.0392C78.5236 86.6518 78.0181 89.1991 77.2589 97.1296C76.7912 102.015 76.7957 104.272 77.288 111.68C77.6241 116.738 79.0804 124.33 80.6758 129.341C81.7349 132.667 83.3969 137.236 83.6799 137.598C83.7875 137.736 84.2567 138.63 84.7225 139.586C85.6703 141.53 86.6996 142.952 87.1589 142.952C87.3265 142.952 87.8393 142.752 88.2985 142.507ZM96.1905 138.957C99.0549 137.581 105.225 135.721 107.796 135.461C108.538 135.385 110.22 135.172 111.533 134.987C117.282 134.178 123.932 134.736 127.634 136.339C129.967 137.348 130.426 137.327 131.312 136.166C132.011 135.248 133.279 133.183 134.965 130.218C137.38 125.969 140.267 117.775 141.326 112.161C142.382 106.564 142.519 105.204 142.623 99.3477C142.767 91.1748 142.515 90.1393 141.309 93.9427C140.71 95.8297 139.623 98.5569 137.228 104.188C132.904 114.349 129.636 118.968 123.288 123.89C120.462 126.082 115.413 128.309 111.286 129.183C109.383 129.587 104.846 129.51 103.359 129.05C101.894 128.597 98.7825 126.908 97.4136 125.824C93.6243 122.821 90.7955 116.978 90.4187 111.376C90.2243 108.486 90.9672 104.059 92.0902 101.417C93.461 98.1924 96.8952 93.8315 99.1366 92.4694C99.6846 92.1365 101.18 91.4686 102.459 90.9853C104.498 90.215 105.015 90.1044 106.653 90.0891C108.79 90.0691 109.688 90.4324 111.031 91.8614C112.184 93.0879 112.664 94.3495 112.663 96.1523C112.663 97.8443 112.228 98.9744 111.189 99.9823C110.37 100.777 109.693 101.092 107.099 101.884C103.405 103.013 102.77 103.504 101.55 106.178C100.664 108.121 100.653 109.815 101.516 111.743C102.256 113.398 104.119 115.371 105.719 116.195C106.777 116.74 107.054 116.783 109.461 116.783C111.967 116.783 112.109 116.758 113.406 116.088C115.028 115.25 118.696 112.238 120.207 110.502C121.394 109.139 122.963 106.991 124.459 104.681C126.813 101.047 130.639 91.6845 132.914 83.9909C133.621 81.6021 134.608 78.2794 135.108 76.6072C136.938 70.4903 136.975 70.9763 134.29 65.8768C133.065 63.5509 132.758 63.0626 129.886 58.8693C128.251 56.4814 123.534 51.2155 121.855 49.9034C121.096 49.3099 120.967 49.2855 118.118 49.1931C116.495 49.1405 113.018 49.1962 110.391 49.3168C105.132 49.5584 103.609 49.8644 101.256 51.1518C99.8092 51.9439 97.4264 54.3472 96.7855 55.6612C95.4238 58.4528 95.6665 61.9201 97.4739 65.4976C98.2498 67.0334 100.98 69.7578 102.501 70.5146C105.388 71.9513 107.019 72.5891 108.597 72.8996C111.887 73.5467 113.098 73.331 115.551 71.6609C116.938 70.7171 117.363 70.5372 118.395 70.4592C121.238 70.2441 123.636 72.8426 123.666 76.1729C123.684 78.1266 123.185 79.1747 121.368 81.0029C119.125 83.2602 116.501 84.3339 112.134 84.7819C109.268 85.0758 107.14 84.8242 103.829 83.8C97.8549 81.9524 94.1499 79.2006 90.1971 73.6754C87.8645 70.415 86.1383 66.3329 85.5856 62.7705C85.3137 61.0183 85.3137 57.4492 85.5856 55.697C86.1709 51.9244 87.9371 48.3508 90.8055 45.1352C93.5014 42.1129 97.1948 39.7781 100.673 38.8977C101.723 38.6319 102.534 38.3332 102.475 38.234C101.998 37.4269 96.9648 35.9907 91.2443 35.0295C86.8015 34.283 86.3452 34.2506 86.0218 34.6581C85.6915 35.0743 85.2287 36.5089 84.5178 39.3198C83.1454 44.7466 81.152 49.6842 78.8455 53.3702C78.2476 54.3257 77.2285 55.9871 76.5809 57.062C74.4898 60.5334 69.2786 66.7783 66.3718 69.2963C65.4582 70.0877 63.9145 71.4701 62.9415 72.3682C61.9684 73.2663 60.5516 74.4898 59.7931 75.087C59.0346 75.6842 58.3093 76.3478 58.1813 76.5616C57.6776 77.4029 56.152 85.4791 56.3331 86.3449C56.3896 86.6147 56.7823 86.438 58.1486 85.5278C59.1074 84.889 59.9658 84.2282 60.0562 84.0594C60.1465 83.8906 60.7001 82.0492 61.2863 79.9674C62.6213 75.2269 63.7494 72.8399 65.4049 71.253C67.0435 69.6822 68.19 68.9678 70.0681 68.3472C74.1318 67.0043 77.2802 68.3502 78.4676 71.9381C79.505 75.0725 79.3421 76.3046 77.327 80.5652C76.1621 83.0278 75.6359 83.866 74.183 85.5727C73.2233 86.7002 71.8936 88.0648 71.2281 88.6054C69.7493 89.8064 69.4765 90.492 69.1819 93.7469C68.9093 96.7594 68.9083 98.4326 69.1792 98.4326C69.2957 98.4326 69.6928 97.9769 70.0616 97.4199C70.4304 96.8629 71.4419 95.4139 72.3092 94.2C74.2049 91.5468 75.4863 89.5735 75.6906 88.9928C75.7733 88.7578 75.9267 87.8584 76.0314 86.9942C76.1362 86.1299 76.5033 84.6609 76.8473 83.7296C77.5376 81.8604 79.8894 77.3189 80.8769 75.9479C82.3413 73.9149 84.9085 72.4352 86.5301 72.6895C88.7735 73.0414 90.4044 74.8372 91.4174 78.0712C92.0838 80.1984 92.078 83.932 91.405 86.0168C90.774 87.9719 90.2429 88.7538 87.5765 91.654C85.5191 93.8918 85.191 94.35 85.0455 95.1887C84.9537 95.7187 84.8863 98.9375 84.8959 102.342C84.9102 107.456 84.9863 109.002 85.3339 111.246C85.5653 112.739 85.9529 115.255 86.1954 116.838C86.4378 118.421 86.9596 120.95 87.3549 122.459C87.7502 123.967 88.2103 125.818 88.3775 126.572C88.8849 128.861 91.5999 135.757 92.6029 137.305C93.5831 138.818 94.2841 139.695 94.5136 139.695C94.5918 139.695 95.3464 139.363 96.1905 138.957ZM62.3094 132.603C63.6425 131.908 65.2816 130.207 66.2601 128.503C66.8317 127.508 66.9964 126.965 67.064 125.855C67.1107 125.087 67.0586 124.364 66.9481 124.249C66.6561 123.943 65.7833 125.233 64.7637 127.475C64.2876 128.522 63.8006 129.451 63.6815 129.539C62.9856 130.051 62.3229 129.327 62.3229 128.054C62.3229 126.85 62.9659 125.207 64.8642 121.561C67.6478 116.215 70.6067 111.137 73.1319 107.373C74.0544 105.998 74.0544 105.998 74.125 102.516C74.1968 98.9726 74.0864 97.5639 73.7367 97.5639C73.4343 97.5639 70.2706 102.185 67.0466 107.337C63.1418 113.576 61.522 116.428 59.8941 119.932C56.7977 126.598 56.2391 130.408 58.0619 132.43C58.6855 133.121 58.8343 133.18 59.9707 133.18C60.8883 133.18 61.4858 133.032 62.3094 132.603ZM44.2019 132.352C44.4681 132.175 45.4539 127.925 46.0193 124.517C46.2001 123.427 46.575 121.483 46.8524 120.199C47.1297 118.914 47.5023 116.887 47.6805 115.694C47.8586 114.502 48.2332 112.5 48.5128 111.246C48.7924 109.991 49.3053 107.206 49.6526 105.056C50.6896 98.6371 50.8657 98.3142 54.2758 96.5798C57.0376 95.1751 57.8951 94.5761 58.152 93.8721C58.4243 93.1257 59.2701 88.8695 59.1675 88.7622C59.1218 88.7144 58.5283 89.0285 57.8486 89.4603C55.0655 91.2282 52.9221 91.9293 52.6412 91.1635C52.5156 90.8213 53.3817 85.4066 54.049 82.3622C54.2716 81.3469 54.7694 78.7041 55.1554 76.4892C55.5413 74.2744 56.0091 71.7824 56.1949 70.9514C56.3807 70.1205 56.766 68.0236 57.0513 66.2917C57.3365 64.5598 58.036 60.9052 58.6058 58.1705C59.1755 55.4358 59.8156 52.0136 60.0281 50.5658C60.2406 49.1179 60.5606 47.3975 60.7392 46.7427C60.9178 46.0879 61.3545 43.793 61.7095 41.6431C62.0646 39.4931 62.5254 36.9522 62.7335 35.9967C62.9416 35.0412 63.268 33.2332 63.4587 31.9791C63.922 28.9329 65.7282 21.9223 66.678 19.4838C67.6008 17.1145 69.3043 14.2748 70.4549 13.1876C72.1374 11.5977 74.1915 11.1469 75.9491 11.9816C76.6273 12.3037 76.9187 12.6306 77.3483 13.5513C78.1004 15.1629 78.2954 16.3597 78.4479 20.2978C78.58 23.7097 78.5801 23.7097 79.5056 23.8549C80.5052 24.0117 82.8242 23.8569 83.0511 23.6182C83.1277 23.5376 83.1768 21.6478 83.1601 19.4187C83.1323 15.7113 83.0824 15.1991 82.575 13.4114C81.4409 9.41604 80.1644 7.47047 77.9955 6.43196C76.2795 5.61026 74.5839 5.37448 72.635 5.68652C70.2955 6.06109 69.0599 6.70761 67.2534 8.50244C63.6364 12.0959 60.8838 18.147 60.0419 24.3553C59.9237 25.2272 59.5963 26.7862 59.3143 27.8197C59.0323 28.8532 58.6195 30.8773 58.397 32.3177C58.1745 33.7581 57.7505 35.9873 57.4546 37.2715C57.1588 38.5558 56.6781 41.042 56.3865 42.7965C56.0948 44.551 55.6369 46.9637 55.3688 48.1581C55.1008 49.3526 54.7783 51.1188 54.6522 52.0831C54.5261 53.0475 54.142 55.2463 53.7988 56.9694C53.4555 58.6926 53.0329 60.932 52.8596 61.9459C52.6863 62.9599 52.0866 66.1848 51.5271 69.1125C50.9675 72.0401 50.2667 75.8037 49.9696 77.4759C49.6725 79.1481 49.1426 81.9821 48.7921 83.7737C48.4416 85.5654 47.9932 88.0574 47.7957 89.3115C47.5982 90.5657 47.099 93.3509 46.6862 95.5008C46.2735 97.6508 45.5633 101.462 45.108 103.97C43.3205 113.818 42.3294 119.122 41.557 122.973C40.4501 128.491 40.2216 130.503 40.6281 131.152C41.2592 132.16 43.4064 132.881 44.2019 132.352ZM109.768 126.227C112.964 125.92 113.859 125.698 116.699 124.512C120.162 123.066 121.7 122.044 124.544 119.304C128.618 115.378 129.734 113.737 133.365 106.323C135.639 101.682 138.814 93.6174 140.191 88.9858C141.167 85.7057 141.328 83.9176 140.828 81.9278C140.493 80.5939 138.711 76.0643 138.522 76.0643C138.307 76.0643 138.01 76.9306 137.403 79.3218C135.787 85.6882 131.896 96.1747 129.023 101.907C126.574 106.794 125.941 107.852 124.214 109.943C123.572 110.719 122.629 111.885 122.119 112.534C121.096 113.832 118.049 116.569 116.417 117.654C115.019 118.583 110.474 120.149 109.175 120.149C106.987 120.149 103.466 118.717 101.734 117.122C100.013 115.538 98.4437 112.296 98.1381 109.694C97.7973 106.792 100.06 102.259 102.746 100.461C104.145 99.525 106.247 98.6077 107.819 98.2475C108.53 98.0846 109.165 97.7802 109.446 97.4677C110.054 96.7899 110.209 95.4858 109.802 94.4663C109.062 92.6134 107.007 92.2842 104.072 93.5483C100.193 95.2193 98.5559 96.5676 96.0308 100.17C94.3573 102.558 93.0505 107.358 93.0563 111.097C93.0603 113.694 93.4686 115.445 94.6602 117.978C96.7269 122.37 100.965 125.599 105.456 126.203C107.437 126.47 107.256 126.469 109.768 126.227ZM61.5876 110.648C61.9255 110.081 62.8131 108.66 63.5601 107.49C65.8994 103.826 65.8454 103.955 65.8501 102.016C65.8725 92.8837 68.4836 79.1906 70.6087 77.0612C71.4445 76.2237 72.4283 76.3332 72.9801 77.3251C73.3794 78.043 73.3794 78.043 72.4371 80.1483C71.5516 82.1269 70.92 84.0426 71.0935 84.224C71.1359 84.2684 71.5161 84.0068 71.9384 83.6427C72.9497 82.7708 74.4191 80.5953 75.246 78.7455C75.8382 77.4207 75.9114 77.0436 75.9169 75.2849C75.9231 73.3175 75.9205 73.3077 75.1351 72.3045C73.7817 70.576 71.9489 70.4416 69.3255 71.8785C66.2444 73.5661 64.4112 76.8798 63.0375 83.2448C62.4779 85.8374 61.7966 91.2634 61.5941 94.7407C61.521 95.9949 61.3266 98.5358 61.162 100.387C60.7704 104.792 60.5403 111.68 60.7847 111.679C60.8884 111.679 61.2497 111.215 61.5876 110.648ZM114.648 81.3725C116.528 80.9105 118.929 79.619 120.098 78.4408C120.97 77.5626 121.084 77.3403 121.084 76.5277C121.084 75.4431 120.682 74.5397 119.918 73.9118C119.059 73.2046 118.309 73.3404 116.435 74.542C114.356 75.8755 113.116 76.1556 109.976 76.0005C107.493 75.8779 104.898 75.2089 102.956 74.1907C99.2104 72.2271 97.0564 70.3482 95.3064 67.5178C94.3073 65.902 93.7887 64.4456 93.3396 61.9954C92.9915 60.0964 92.9936 59.9845 93.4203 57.619C94.0048 54.3787 94.4369 53.5111 96.5652 51.3053C98.4562 49.3455 99.7488 48.5033 102.363 47.5279C105.399 46.3952 106.778 46.2929 117.139 46.4315C122.335 46.501 129.711 46.698 133.529 46.8694C137.347 47.0407 141.511 47.1809 142.781 47.1809C144.338 47.1809 145.21 47.2721 145.457 47.4607C145.803 47.7254 145.794 47.8194 145.298 49.1989C145.009 50.0011 144.672 51.2677 144.548 52.0138C144.425 52.7598 144.032 54.3935 143.676 55.6442C142.73 58.9637 142.75 59.1203 144.633 62.8734C145.518 64.6364 146.319 66.0288 146.413 65.9677C146.644 65.8189 148.203 60.594 150.623 51.8593C151.694 47.9937 151.713 47.9508 152.711 46.973C153.946 45.7629 154.306 45.0753 154.306 43.9309C154.306 43.2282 154.161 42.883 153.594 42.2371C152.882 41.4259 152.882 41.4259 148.351 41.4259C145.86 41.4259 137.649 41.2943 130.105 41.1335C113.976 40.7897 103.653 40.8747 102.085 41.3643C100.05 42 97.7042 43.0928 96.3595 44.0322C94.9204 45.0376 92.6406 47.2658 91.3428 48.9353C90.4663 50.0629 89.0749 53.1914 88.5976 55.1079C87.8556 58.0876 88.4098 64.0389 89.7081 67.0338C90.5187 68.9035 93.5558 73.5901 94.699 74.7354C98.4474 78.4906 102.255 80.622 106.342 81.252C107.199 81.3841 108.133 81.528 108.418 81.5718C109.836 81.7894 113.418 81.6748 114.648 81.3725ZM34.6664 80.5011C39.465 79.9034 45.8217 78.3383 46.5517 77.5747C46.7747 77.3414 47.0347 76.4285 47.2376 75.1658C47.7575 71.9302 47.7655 71.7209 47.3694 71.7209C47.1786 71.7209 45.7171 72.2012 44.1217 72.7882C38.8656 74.722 34.1344 75.5104 28.7137 75.3557C25.4827 75.2634 24.7467 75.1701 22.4576 74.5621C18.5143 73.5148 15.2081 71.4344 12.5005 68.2967C8.8664 64.0854 7.60558 56.6039 9.30789 49.3526C9.74228 47.5022 11.0497 44.5576 12.0559 43.1639C12.9861 41.8752 15.2858 39.98 17.3693 38.7849C18.8228 37.9512 18.8228 37.9512 22.6641 37.8844C26.4486 37.8186 26.5356 37.8274 28.5554 38.4816C30.8567 39.2271 31.3686 39.2779 32.176 38.8412C32.8853 38.4576 33.6689 37.0233 33.6689 36.1085C33.6689 33.926 31.9568 32.8426 27.2927 32.0736C24.5925 31.6285 19.5672 31.7474 17.581 32.3035C12.6857 33.674 8.30811 37.4963 5.27415 43.0493C4.11393 45.1728 3.43764 47.448 3.02869 50.6037C2.43898 55.1542 2.69754 60.0913 3.69672 63.3599C4.3498 65.4963 6.21372 69.2551 7.51967 71.0694C10.9518 75.8374 14.8036 78.418 20.9766 80.0853C24.654 81.0785 28.977 81.2098 34.6664 80.5011ZM34.2918 71.9322C36.5659 71.7232 39.8286 71.0303 42.0782 70.2784C44.8848 69.3403 47.8459 67.655 48.4879 66.6302C48.8633 66.031 52.775 45.7461 52.7725 44.412C52.7708 43.5436 52.0894 43.7837 49.3886 45.6045C43.1609 49.803 37.5273 56.3776 33.0613 64.6592C31.1491 68.2051 30.3292 70.0289 30.2022 71.0193C30.0901 71.893 30.0991 71.908 30.7885 71.9962C31.1736 72.0454 31.5821 72.1005 31.6963 72.1186C31.8105 72.1367 32.9785 72.0528 34.2918 71.9322ZM27.4694 67.4246C29.5709 62.9305 32.3116 58.356 34.7257 55.313C38.0862 51.0769 39.427 49.537 41.4056 47.6408C44.1998 44.9631 47.5998 42.318 51.0864 40.1096C53.7322 38.4339 53.936 38.2567 54.2637 37.3476C54.6566 36.2575 54.9892 33.7164 54.7389 33.7164C54.1825 33.7164 47.5436 38.1494 44.3669 40.6421C42.6394 41.9977 38.3066 46.0811 36.2366 48.3045C33.7585 50.9662 28.8745 57.441 27.3373 60.1024C25.127 63.929 22.4564 69.7165 22.4564 70.6797C22.4564 70.9815 24.1504 71.7116 24.8443 71.7089C25.4471 71.7065 25.5316 71.5686 27.4694 67.4246ZM63.6002 67.4399C68.3722 62.9783 71.2049 59.5499 74.7705 53.9205C77.2555 49.9972 78.0859 48.3332 79.8991 43.6428C80.959 40.9009 82.4637 35.6855 82.4637 34.7534C82.4637 34.5543 78.9613 34.5313 77.8521 34.7231C77.1215 34.8494 77.0607 34.9249 76.672 36.1866C76.4466 36.9182 76.1454 38.1032 76.0026 38.8199C75.7156 40.2611 74.2406 44.2958 73.3827 45.9865C72.5598 47.6083 68.5401 53.8428 66.1949 57.1347C65.0601 58.7275 63.3947 60.7797 62.4938 61.6953C61.5929 62.6108 60.7135 63.5848 60.5394 63.8596C60.3654 64.1344 60.0937 65.1606 59.9355 66.1399C59.7773 67.1192 59.5039 68.6045 59.3279 69.4406C59.1519 70.2767 59.0062 71.0947 59.0043 71.2584C58.9998 71.6239 60.1251 70.689 63.6002 67.4399ZM64.2958 54.6732C68.2796 48.8989 70.8442 44.0835 72.6813 38.9285C73.8367 35.6863 73.8736 35.4538 73.2317 35.4538C72.6706 35.4538 66.9783 36.8133 65.913 37.2017C65.5555 37.332 65.2194 37.5576 65.1661 37.7031C64.9701 38.2373 61.4867 57.5985 61.502 58.0682C61.5146 58.4511 62.5959 57.1371 64.2958 54.6732ZM140.654 52.6702C140.851 52.4423 141.07 51.9556 141.14 51.5886C141.268 50.9213 141.268 50.9213 139.774 50.7644C138.899 50.6725 138.2 50.6922 138.085 50.8122C137.963 50.9402 138.214 51.4744 138.756 52.2393C139.673 53.5334 139.869 53.5779 140.654 52.6702ZM117.97 37.4542C117.97 37.2207 116.263 36.1757 113.402 34.6575C111.07 33.4203 110.192 33.0064 105.719 31.0358C102.684 29.6987 97.9631 28.4058 93.5629 27.7068C90.2336 27.1779 89.2573 27.1143 84.4363 27.1121C80.1179 27.1101 78.2483 27.2079 75.0926 27.601C70.9126 28.1217 70.2066 28.2658 68.2662 28.9936C67.249 29.3752 66.9966 29.5752 66.7483 30.1967C66.3747 31.132 66.1427 33.0649 66.4042 33.0649C66.5109 33.0649 67.4816 32.8253 68.5614 32.5324C77.1945 30.1907 86.9003 29.9906 96.1015 31.9644C99.5367 32.7013 103.897 34.1857 107.173 35.7334C108.943 36.5698 110.765 37.3254 111.222 37.4126C112.365 37.6309 117.97 37.6654 117.97 37.4542ZM71.9049 24.8906C75.6295 24.2232 75.2553 24.6585 75.5183 20.6863C75.7154 17.7107 75.1483 14.8828 74.2852 14.5364C73.1385 14.0762 71.063 15.9851 69.896 18.5733C69.1959 20.1258 67.7214 24.7538 67.7214 25.3985C67.7214 25.6378 67.8532 25.6953 68.1886 25.6023C68.4456 25.5311 70.1179 25.2108 71.9049 24.8906ZM51.4261 -6.06444C50.2791 -9.42763 49.657 -11.2914 49.657 -11.3641C49.657 -11.4139 49.8361 -11.4546 50.0551 -11.4546C50.3748 -11.4546 50.5845 -11.0373 51.1191 -9.3372C51.4854 -8.17264 51.8484 -7.14628 51.9258 -7.05641C52.0032 -6.96654 52.3837 -7.91937 52.7714 -9.1738C53.334 -10.9945 53.5545 -11.4546 53.8646 -11.4546C54.3101 -11.4546 54.3463 -11.6274 53.1856 -8.21576C52.5554 -6.36341 52.318 -5.90329 51.9637 -5.84728C51.7218 -5.80904 51.4798 -5.90676 51.4261 -6.06444ZM54.8041 -6.10428C54.2931 -6.51037 53.9705 -7.54224 54.1106 -8.32295C54.5021 -10.5058 57.3251 -10.4035 57.5867 -8.19707C57.6491 -7.6702 57.6096 -7.65225 56.2495 -7.58993C55.2967 -7.54628 54.8479 -7.43849 54.8479 -7.25332C54.8479 -6.49919 56.2174 -6.15632 56.7166 -6.78547C57.0086 -7.15347 57.5472 -7.22388 57.5472 -6.89406C57.5472 -6.77461 57.3603 -6.48144 57.1319 -6.24255C56.6512 -5.7398 55.3594 -5.66306 54.8041 -6.10428ZM56.7785 -8.33421C56.8507 -8.40963 56.8162 -8.65395 56.702 -8.87713C56.3279 -9.60831 54.8479 -9.29083 54.8479 -8.47939C54.8479 -8.18723 56.5179 -8.06165 56.7785 -8.33421ZM58.6089 -6.32495C57.9983 -7.00472 57.9591 -8.44851 58.5295 -9.25071C59.2652 -10.2856 61.4923 -10.0396 61.4923 -8.9235C61.4923 -8.53158 60.9831 -8.55222 60.6618 -8.95716C60.0207 -9.765 58.793 -9.02684 58.793 -7.83358C58.793 -6.64062 60.1589 -5.97118 60.7099 -6.89406C61.0408 -7.44821 61.4923 -7.45532 61.4923 -6.90637C61.4923 -5.82352 59.4324 -5.40814 58.6089 -6.32495ZM62.7797 -6.06882C62.6347 -6.22041 62.5305 -6.94714 62.5305 -7.80616C62.5305 -8.97405 62.4654 -9.28291 62.219 -9.28291C62.0477 -9.28291 61.9076 -9.4295 61.9076 -9.60866C61.9076 -9.78783 62.0477 -9.93441 62.219 -9.93441C62.4267 -9.93441 62.5305 -10.1516 62.5305 -10.5859C62.5305 -11.0203 62.6343 -11.2374 62.8419 -11.2374C63.0496 -11.2374 63.1534 -11.0203 63.1534 -10.5859C63.1534 -10.0792 63.2457 -9.93441 63.5687 -9.93441C63.7994 -9.93441 63.984 -9.78964 63.984 -9.60866C63.984 -9.42769 63.7994 -9.28291 63.5687 -9.28291C63.1988 -9.28291 63.1534 -9.13813 63.1534 -7.95957C63.1534 -6.81887 63.2107 -6.62055 63.5687 -6.52265C63.7971 -6.46018 63.984 -6.27387 63.984 -6.10864C63.984 -5.73856 63.1227 -5.71008 62.7797 -6.06882ZM65.0709 -6.24169C64.23 -7.06101 64.2934 -8.92901 65.186 -9.63835C65.3814 -9.79359 65.9316 -9.92371 66.4086 -9.92751C67.1028 -9.93303 67.362 -9.82015 67.7064 -9.36221C68.3344 -8.52709 68.2954 -7.04029 67.6271 -6.34127C66.9752 -5.65952 65.7186 -5.61057 65.0709 -6.24169ZM67.1906 -6.94238C68.0989 -8.29877 66.6435 -10.079 65.5561 -8.94165C65.3766 -8.75395 65.2298 -8.2723 65.2298 -7.87132C65.2298 -6.55309 66.5204 -5.94165 67.1906 -6.94238ZM68.9673 -7.87132C68.9673 -9.5604 69.0237 -9.93441 69.2787 -9.93441C69.45 -9.93441 69.5902 -9.78085 69.5902 -9.59315C69.5902 -9.28291 69.6198 -9.28291 69.9165 -9.59315C70.3309 -10.0266 71.0436 -10.0365 71.0436 -9.60866C71.0436 -9.4295 70.9459 -9.28291 70.8266 -9.28291C70.7072 -9.28291 70.3801 -9.04304 70.0998 -8.74986C69.6813 -8.31207 69.5902 -8.00159 69.5902 -7.01251C69.5902 -6.08681 69.5181 -5.80822 69.2787 -5.80822C69.0237 -5.80822 68.9673 -6.18223 68.9673 -7.87132ZM71.4589 -7.87132C71.4589 -9.5604 71.5154 -9.93441 71.7704 -9.93441C72.0254 -9.93441 72.0818 -9.5604 72.0818 -7.87132C72.0818 -6.18223 72.0254 -5.80822 71.7704 -5.80822C71.5154 -5.80822 71.4589 -6.18223 71.4589 -7.87132ZM72.7158 -6.07968C72.7219 -6.22898 73.2303 -6.98635 73.8456 -7.76273C74.9644 -9.17433 74.9644 -9.17433 73.9384 -9.23997C73.2102 -9.28656 72.9124 -9.39686 72.9124 -9.62001C72.9124 -9.86649 73.2488 -9.93441 74.4697 -9.93441C75.5796 -9.93441 76.0256 -9.85644 76.0222 -9.66295C76.0196 -9.51365 75.5108 -8.75628 74.8915 -7.9799C73.7656 -6.5683 73.7656 -6.56831 74.8963 -6.50318C75.717 -6.4559 76.0269 -6.35171 76.0269 -6.12313C76.0269 -5.87427 75.6785 -5.80822 74.3658 -5.80822C73.1695 -5.80822 72.7078 -5.88417 72.7158 -6.07968ZM77.229 -6.10428C76.718 -6.51037 76.3954 -7.54224 76.5354 -8.32295C76.927 -10.5058 79.75 -10.4035 80.0115 -8.19707C80.074 -7.6702 80.0344 -7.65225 78.6743 -7.58993C77.7216 -7.54628 77.2728 -7.43849 77.2728 -7.25332C77.2728 -6.49919 78.6423 -6.15632 79.1415 -6.78547C79.4335 -7.15347 79.9721 -7.22388 79.9721 -6.89406C79.9721 -6.77461 79.7852 -6.48144 79.5568 -6.24255C79.0761 -5.7398 77.7843 -5.66306 77.229 -6.10428ZM79.2034 -8.33421C79.2755 -8.40963 79.2411 -8.65395 79.1269 -8.87713C78.7527 -9.60831 77.2728 -9.29083 77.2728 -8.47939C77.2728 -8.18723 78.9428 -8.06165 79.2034 -8.33421ZM81.0253 -6.38042C80.3674 -7.25523 80.3858 -8.6794 81.0649 -9.44579C81.5465 -9.98923 82.8239 -10.1224 83.2527 -9.67381C83.4465 -9.47112 83.5019 -9.64003 83.5019 -10.4339C83.5019 -11.1964 83.5807 -11.4546 83.8134 -11.4546C84.0742 -11.4546 84.1248 -10.9961 84.1248 -8.6314C84.1248 -6.26668 84.0742 -5.80822 83.8134 -5.80822C83.6421 -5.80822 83.5019 -5.92549 83.5019 -6.06882C83.5019 -6.27151 83.4465 -6.27151 83.2527 -6.06882C83.1157 -5.92549 82.6553 -5.80822 82.2296 -5.80822C81.6408 -5.80822 81.3527 -5.9451 81.0253 -6.38042ZM83.1222 -6.81913C83.894 -7.54968 83.3831 -9.28291 82.396 -9.28291C81.3708 -9.28291 80.8777 -7.93296 81.5411 -6.94238C81.9239 -6.37084 82.5934 -6.31865 83.1222 -6.81913ZM87.2394 -8.6314C87.2394 -11.4546 87.2394 -11.4546 88.8775 -11.4546C90.1601 -11.4546 90.6182 -11.3677 90.9885 -11.0541C91.5568 -10.5727 91.6262 -9.43467 91.1195 -8.90472C90.8309 -8.6029 90.8212 -8.49457 91.057 -8.20926C91.2105 -8.02339 91.3937 -7.40712 91.464 -6.83977C91.5764 -5.93284 91.5454 -5.80822 91.2079 -5.80822C90.9163 -5.80822 90.7968 -6.01926 90.7114 -6.68541C90.5515 -7.93208 90.266 -8.19707 89.0827 -8.19707C88.0699 -8.19707 88.0699 -8.19707 88.0699 -7.00264C88.0699 -5.95299 88.0196 -5.80822 87.6546 -5.80822C87.2607 -5.80822 87.2394 -5.95299 87.2394 -8.6314ZM90.3077 -9.18664C91.2912 -9.90713 90.6181 -10.8031 89.0933 -10.8031C88.0699 -10.8031 88.0699 -10.8031 88.0699 -9.82583C88.0699 -8.84857 88.0699 -8.84857 88.9581 -8.84857C89.4466 -8.84857 90.0539 -9.0007 90.3077 -9.18664ZM92.762 -6.21922C91.5637 -7.60403 92.2649 -9.93441 93.8798 -9.93441C94.7954 -9.93441 95.5412 -9.22022 95.6056 -8.28182C95.6487 -7.65415 95.6487 -7.65415 94.2471 -7.58993C92.8005 -7.52365 92.6127 -7.38585 93.1719 -6.80099C93.5849 -6.36896 94.3775 -6.36099 94.7143 -6.78547C95.0433 -7.20008 95.5449 -7.20752 95.5449 -6.79779C95.5449 -5.89229 93.426 -5.45177 92.762 -6.21922ZM94.922 -8.47939C94.922 -9.29083 93.442 -9.60831 93.0678 -8.87713C92.7858 -8.32588 92.9665 -8.19707 94.0222 -8.19707C94.622 -8.19707 94.922 -8.29117 94.922 -8.47939ZM96.5114 -6.20536C96.3224 -6.42379 96.1678 -6.71697 96.1678 -6.85687C96.1678 -7.222 96.6929 -7.1704 97.0071 -6.77438C97.3642 -6.32441 98.5292 -6.44095 98.6187 -6.9356C98.6675 -7.20507 98.4468 -7.3741 97.7899 -7.57028C96.7409 -7.88355 96.1678 -8.33518 96.1678 -8.84857C96.1678 -9.91954 98.3326 -10.3873 98.9591 -9.45176C99.1369 -9.18629 99.2824 -8.89312 99.2824 -8.80025C99.2824 -8.51005 98.7227 -8.61578 98.4518 -8.95716C98.3096 -9.13632 97.9176 -9.28291 97.5806 -9.28291C96.6049 -9.28291 96.9103 -8.5997 98.0377 -8.26025C99.4549 -7.83355 99.8538 -7.05742 99.0747 -6.24255C98.5221 -5.66455 96.9985 -5.64244 96.5114 -6.20536ZM100.431 -6.15759C99.976 -6.63396 99.9698 -9.93441 100.424 -9.93441C100.671 -9.93441 100.736 -9.62555 100.736 -8.45767C100.736 -6.89478 100.939 -6.45972 101.67 -6.45972C102.401 -6.45972 102.605 -6.89478 102.605 -8.45767C102.605 -9.78964 102.645 -9.93441 103.02 -9.93441C103.405 -9.93441 103.435 -9.78964 103.435 -7.90335C103.435 -5.8723 103.435 -5.87229 102.093 -5.84837C101.139 -5.83136 100.658 -5.92086 100.431 -6.15759ZM104.266 -8.6314C104.266 -10.9961 104.316 -11.4546 104.577 -11.4546C104.838 -11.4546 104.889 -10.9961 104.889 -8.6314C104.889 -6.26668 104.838 -5.80822 104.577 -5.80822C104.316 -5.80822 104.266 -6.26668 104.266 -8.6314ZM106.384 -6.06882C106.239 -6.22041 106.134 -6.94714 106.134 -7.80616C106.134 -8.97405 106.069 -9.28291 105.823 -9.28291C105.652 -9.28291 105.511 -9.4295 105.511 -9.60866C105.511 -9.78783 105.652 -9.93441 105.823 -9.93441C106.031 -9.93441 106.134 -10.1516 106.134 -10.5859C106.134 -11.0203 106.238 -11.2374 106.446 -11.2374C106.653 -11.2374 106.757 -11.0203 106.757 -10.5859C106.757 -10.0792 106.85 -9.93441 107.173 -9.93441C107.403 -9.93441 107.588 -9.78964 107.588 -9.60866C107.588 -9.42769 107.403 -9.28291 107.173 -9.28291C106.803 -9.28291 106.757 -9.13813 106.757 -7.95957C106.757 -6.81887 106.815 -6.62055 107.173 -6.52265C107.401 -6.46018 107.588 -6.27387 107.588 -6.10864C107.588 -5.73856 106.727 -5.71008 106.384 -6.06882ZM71.4589 -11.0203C71.4589 -11.2616 71.5973 -11.4546 71.7704 -11.4546C71.9434 -11.4546 72.0818 -11.2616 72.0818 -11.0203C72.0818 -10.779 71.9434 -10.5859 71.7704 -10.5859C71.5973 -10.5859 71.4589 -10.779 71.4589 -11.0203Z" fill="black"/>
</g>
</g>
<defs>
<clipPath id="clip0_329_14">
<rect width="157" height="182" fill="white"/>
</clipPath>
</defs>
</svg>
