<svg width="334" height="387" viewBox="0 0 334 387" fill="none" xmlns="http://www.w3.org/2000/svg">
<g clip-path="url(#clip0_329_8)">
<mask id="mask0_329_8" style="mask-type:luminance" maskUnits="userSpaceOnUse" x="-2" y="0" width="339" height="387">
<path d="M336.353 0H-1.73486V387H336.353V0Z" fill="white"/>
</mask>
<g mask="url(#mask0_329_8)">
<path d="M164.389 409.81C164.389 409.607 164.638 409.165 164.941 408.829C165.383 408.339 165.383 408.174 164.941 408.005C164.011 407.649 164.283 406.023 165.273 406.023C166.271 406.023 166.494 407.732 165.699 409.286C165.244 410.174 164.389 410.516 164.389 409.81ZM202.378 409.81C202.378 409.607 202.626 409.165 202.93 408.829C203.372 408.339 203.372 408.174 202.93 408.005C202 407.649 202.271 406.023 203.261 406.023C204.259 406.023 204.483 407.732 203.687 409.286C203.233 410.174 202.378 410.516 202.378 409.81ZM21.2633 407.524C21.2597 407.334 22.1835 404.632 23.3164 401.521C25.0494 396.762 25.5235 395.864 26.3047 395.865C27.0826 395.865 27.5758 396.784 29.3439 401.522C30.5048 404.633 31.449 407.334 31.4421 407.524C31.4353 407.715 31.0639 407.87 30.6169 407.87C30.0604 407.87 29.6204 407.288 29.2211 406.023C28.6396 404.181 28.6314 404.176 26.3271 404.176C24.0434 404.176 24.008 404.198 23.3093 406.023C22.9205 407.039 22.3025 407.87 21.9361 407.87C21.5698 407.87 21.267 407.715 21.2633 407.524ZM27.8955 402.444C27.8953 402.254 27.5311 401.096 27.0862 399.871C26.2773 397.645 26.2773 397.645 25.3706 400.218C24.4639 402.791 24.4639 402.791 26.1799 402.791C27.1237 402.791 27.8957 402.635 27.8955 402.444ZM32.3131 403.483C32.3131 399.892 32.4333 399.097 32.9757 399.097C33.3402 399.097 33.6383 399.312 33.6383 399.575C33.6383 399.904 33.9038 399.904 34.4927 399.575C35.9731 398.746 37.9431 399.003 38.6931 400.123C39.6557 401.56 39.6761 407.87 38.7181 407.87C38.202 407.87 38.0556 407.251 38.0556 405.069C38.0556 401.75 37.5168 400.482 36.1063 400.482C34.5666 400.482 34.0045 401.527 33.7482 404.864C33.586 406.976 33.3383 407.87 32.9152 407.87C32.4492 407.87 32.3131 406.879 32.3131 403.483ZM42.0467 406.977C41.7952 406.486 41.5894 404.824 41.5894 403.283C41.5894 401.101 41.4429 400.482 40.9268 400.482C40.5624 400.482 40.2642 400.17 40.2642 399.789C40.2642 399.408 40.5492 399.097 40.8975 399.097C41.2599 399.097 41.5905 398.553 41.6705 397.827C41.7537 397.071 42.0784 396.557 42.4728 396.557C42.8673 396.557 43.192 397.071 43.2752 397.827C43.3552 398.553 43.6858 399.097 44.0482 399.097C44.3965 399.097 44.6815 399.408 44.6815 399.789C44.6815 400.17 44.3833 400.482 44.0189 400.482C43.4979 400.482 43.3563 401.123 43.3563 403.483C43.3563 405.844 43.4979 406.485 44.0189 406.485C44.3833 406.485 44.6815 406.797 44.6815 407.178C44.6815 408.209 42.5958 408.05 42.0467 406.977ZM46.4484 403.483C46.4484 399.892 46.5685 399.097 47.111 399.097C47.6534 399.097 47.7735 399.892 47.7735 403.483C47.7735 407.075 47.6534 407.87 47.111 407.87C46.5685 407.87 46.4484 407.075 46.4484 403.483ZM55.9243 406.747C54.7707 404.906 56.3911 402.791 58.9544 402.791C60.1551 402.791 61.2572 401.709 60.8164 400.964C60.3774 400.221 57.9417 400.383 57.6513 401.175C57.3699 401.941 55.7246 402.138 55.7246 401.405C55.7246 401.151 56.1222 400.528 56.6081 400.02C57.6159 398.967 60.9406 398.731 61.8204 399.651C62.1288 399.973 62.3505 401.518 62.3505 403.345C62.3505 405.13 62.5411 406.485 62.7922 406.485C63.0352 406.485 63.234 406.797 63.234 407.178C63.234 407.98 61.8687 408.106 61.1635 407.368C60.8177 407.007 60.6002 407.007 60.3865 407.368C60.2233 407.644 59.3109 407.87 58.3591 407.87C57.0132 407.87 56.4719 407.621 55.9243 406.747ZM60.4953 405.931C60.7868 405.626 61.0253 404.975 61.0253 404.485C61.0253 403.716 60.8022 403.631 59.407 403.868C57.5 404.192 56.8321 404.764 57.1981 405.761C57.5138 406.621 59.726 406.735 60.4953 405.931ZM64.5591 401.867C64.5591 396.839 64.6667 395.864 65.2217 395.864C65.7767 395.864 65.8843 396.839 65.8843 401.867C65.8843 406.895 65.7767 407.87 65.2217 407.87C64.6667 407.87 64.5591 406.895 64.5591 401.867ZM68.0929 403.483C68.0929 399.892 68.2131 399.097 68.7555 399.097C69.298 399.097 69.4181 399.892 69.4181 403.483C69.4181 407.075 69.298 407.87 68.7555 407.87C68.2131 407.87 68.0929 407.075 68.0929 403.483ZM71.7151 407.316C71.0134 406.583 71.0376 404.417 71.7546 403.795C72.0678 403.523 73.1766 403.101 74.2185 402.856C76.4431 402.333 76.6824 402.145 76.3333 401.194C75.9898 400.259 73.4536 400.243 73.1117 401.174C72.7957 402.035 71.6268 402.092 71.6268 401.246C71.6268 400.104 73.2011 399.096 74.9745 399.103C77.6389 399.114 77.9775 399.55 78.1762 403.225C78.2731 405.018 78.5287 406.485 78.7442 406.485C78.9598 406.485 79.1361 406.797 79.1361 407.178C79.1361 407.609 78.7189 407.87 78.0318 407.87C77.4244 407.87 76.9275 407.655 76.9275 407.392C76.9275 407.063 76.662 407.063 76.0731 407.392C74.9136 408.041 72.3659 407.997 71.7151 407.316ZM75.9557 405.931C76.6891 405.164 76.6213 403.714 75.8519 403.714C74.4198 403.714 72.9519 404.644 72.9519 405.55C72.9519 406.266 73.2414 406.485 74.1888 406.485C74.869 406.485 75.6641 406.236 75.9557 405.931ZM80.4613 406.947C79.9754 406.439 79.5778 405.815 79.5778 405.561C79.5778 404.813 81.2262 405.034 81.5153 405.822C81.8896 406.842 84.5992 406.537 84.7956 405.453C84.906 404.844 84.4428 404.513 82.8614 404.07C81.6243 403.724 80.5177 403.067 80.1292 402.447C79.5481 401.52 79.5559 401.278 80.1998 400.251C81.4977 398.18 86.2037 398.93 86.2037 401.207C86.2037 402.097 85.0187 402.047 84.5313 401.137C84.2782 400.664 83.6858 400.46 82.8529 400.559C80.8953 400.793 81.2543 401.963 83.4911 402.64C84.5501 402.961 85.6931 403.463 86.031 403.756C86.8934 404.504 86.7954 406.2 85.8376 407.106C84.6758 408.205 81.5773 408.113 80.4613 406.947ZM89.2027 407.241C88.1155 406.377 87.4293 404.183 87.7272 402.523C88.5601 397.882 94.5658 398.099 95.1222 402.791C95.255 403.911 95.1709 403.949 92.2774 404.082C90.2506 404.175 89.2958 404.404 89.2958 404.798C89.2958 406.401 92.2093 407.13 93.2713 405.792C93.8925 405.01 95.0382 404.86 95.0382 405.561C95.0382 405.815 94.6407 406.439 94.1548 406.947C93.1322 408.016 90.384 408.179 89.2027 407.241ZM93.403 402.499C93.5564 402.339 93.4832 401.819 93.2402 401.345C92.4443 399.79 89.2958 400.465 89.2958 402.19C89.2958 402.812 92.8486 403.079 93.403 402.499ZM97.2789 406.654C95.8792 404.793 95.9184 401.765 97.3631 400.136C98.3876 398.98 101.105 398.697 102.017 399.651C102.43 400.082 102.548 399.722 102.548 398.034C102.548 396.413 102.715 395.864 103.21 395.864C103.765 395.864 103.873 396.839 103.873 401.867C103.873 406.895 103.765 407.87 103.21 407.87C102.846 407.87 102.548 407.621 102.548 407.316C102.548 406.885 102.43 406.885 102.017 407.316C101.726 407.621 100.746 407.87 99.8409 407.87C98.5883 407.87 97.9754 407.579 97.2789 406.654ZM101.74 405.721C103.382 404.167 102.295 400.482 100.195 400.482C98.0139 400.482 96.9649 403.352 98.3762 405.459C99.1905 406.674 100.615 406.785 101.74 405.721ZM110.587 407.316C109.885 406.583 109.91 404.417 110.626 403.795C110.94 403.523 112.048 403.101 113.09 402.856C115.315 402.333 115.554 402.145 115.205 401.194C114.862 400.259 112.326 400.243 111.984 401.174C111.668 402.035 110.499 402.092 110.499 401.246C110.499 400.104 112.073 399.096 113.846 399.103C116.511 399.114 116.849 399.55 117.048 403.225C117.145 405.018 117.401 406.485 117.616 406.485C117.832 406.485 118.008 406.797 118.008 407.178C118.008 407.609 117.591 407.87 116.904 407.87C116.296 407.87 115.799 407.655 115.799 407.392C115.799 407.063 115.534 407.063 114.945 407.392C113.786 408.041 111.238 407.997 110.587 407.316ZM114.828 405.931C115.561 405.164 115.493 403.714 114.724 403.714C113.292 403.714 111.824 404.644 111.824 405.55C111.824 406.266 112.113 406.485 113.061 406.485C113.741 406.485 114.536 406.236 114.828 405.931ZM118.891 403.483C118.891 399.892 119.012 399.097 119.554 399.097C119.918 399.097 120.217 399.44 120.217 399.861C120.217 400.572 120.273 400.572 121.024 399.861C121.469 399.44 122.449 399.097 123.204 399.097C124.371 399.097 124.596 398.908 124.715 397.827C124.798 397.071 125.123 396.557 125.517 396.557C125.912 396.557 126.236 397.071 126.32 397.827C126.4 398.553 126.73 399.097 127.093 399.097C127.441 399.097 127.726 399.408 127.726 399.789C127.726 400.17 127.428 400.482 127.063 400.482C126.542 400.482 126.401 401.123 126.401 403.483C126.401 405.844 126.542 406.485 127.063 406.485C127.428 406.485 127.726 406.797 127.726 407.178C127.726 408.209 125.64 408.05 125.091 406.977C124.84 406.486 124.634 404.824 124.634 403.283C124.634 400.638 124.575 400.482 123.578 400.482C121.593 400.482 120.617 401.843 120.343 404.993C120.171 406.985 119.909 407.87 119.493 407.87C119.028 407.87 118.891 406.876 118.891 403.483ZM131.041 407.327C130.255 405.106 128.609 399.793 128.609 399.477C128.609 398.688 130.377 399.109 130.403 399.905C130.418 400.349 130.778 401.856 131.202 403.253C131.974 405.792 131.974 405.792 132.769 402.444C133.385 399.849 133.741 399.097 134.352 399.097C134.963 399.097 135.319 399.849 135.935 402.444C136.73 405.792 136.73 405.792 137.501 403.253C137.926 401.856 138.286 400.349 138.3 399.905C138.317 399.414 138.674 399.097 139.211 399.097C139.697 399.097 140.091 399.148 140.087 399.212C140.084 399.275 139.527 401.198 138.851 403.483C137.874 406.784 137.436 407.668 136.724 407.777C135.962 407.893 135.742 407.512 135.26 405.237C134.442 401.375 134.252 401.312 133.467 404.644C132.979 406.715 132.53 407.682 132.009 407.787C131.596 407.87 131.16 407.664 131.041 407.327ZM142.846 407.561C142.045 407.224 140.978 404.896 140.978 403.483C140.978 401.957 142.055 399.756 142.985 399.383C144.618 398.728 146.766 399.102 147.845 400.23C148.681 401.104 148.929 401.848 148.929 403.483C148.929 406.289 147.517 407.887 145.084 407.834C144.162 407.814 143.155 407.691 142.846 407.561ZM146.754 405.749C147.076 405.344 147.339 404.325 147.339 403.483C147.339 401.522 146.499 400.482 144.915 400.482C143.514 400.482 142.745 401.545 142.745 403.483C142.745 405.421 143.514 406.485 144.915 406.485C145.605 406.485 146.433 406.154 146.754 405.749ZM150.254 403.483C150.254 400.007 150.384 399.097 150.88 399.097C151.224 399.097 151.597 399.356 151.708 399.674C151.87 400.135 152.027 400.135 152.496 399.674C152.818 399.356 153.439 399.097 153.876 399.097C155.105 399.097 154.812 400.164 153.343 401.038C152.086 401.786 152.021 401.973 152.021 404.847C152.021 407.563 151.931 407.87 151.137 407.87C150.316 407.87 150.254 407.563 150.254 403.483ZM155.996 401.867C155.996 396.839 156.104 395.864 156.659 395.864C157.185 395.864 157.322 396.534 157.322 399.127C157.322 402.391 157.322 402.391 159.244 400.744C160.302 399.838 161.534 399.097 161.981 399.097C162.652 399.097 162.546 399.366 161.384 400.619C160.607 401.457 159.972 402.296 159.972 402.485C159.972 402.673 160.671 403.91 161.526 405.233C162.85 407.285 162.968 407.664 162.321 407.807C161.585 407.969 161.197 407.591 159.285 404.85C158.123 403.184 157.322 403.674 157.322 406.051C157.322 407.36 157.136 407.87 156.659 407.87C156.104 407.87 155.996 406.895 155.996 401.867ZM173.224 401.867C173.224 396.898 173.335 395.864 173.872 395.864C174.396 395.864 174.544 396.86 174.645 401.059C174.77 406.254 174.77 406.254 177.751 406.391C180.006 406.494 180.733 406.691 180.733 407.199C180.733 407.734 179.969 407.87 176.978 407.87C173.224 407.87 173.224 407.87 173.224 401.867ZM182.604 406.949C180.815 405.206 180.95 401.234 182.849 399.726C183.264 399.396 184.435 399.119 185.45 399.111C186.926 399.1 187.478 399.339 188.21 400.313C189.546 402.089 189.463 405.25 188.042 406.737C186.655 408.187 183.982 408.291 182.604 406.949ZM187.113 405.459C189.045 402.575 185.949 398.789 183.636 401.207C183.254 401.607 182.942 402.631 182.942 403.483C182.942 406.287 185.687 407.587 187.113 405.459ZM191.433 403.599C190.396 400.085 190.286 399.299 190.811 399.167C191.643 398.957 191.973 399.567 192.668 402.598C192.984 403.974 193.375 405.1 193.537 405.1C193.699 405.1 194.118 403.801 194.469 402.214C194.984 399.882 195.273 399.327 195.973 399.327C196.672 399.327 196.961 399.882 197.476 402.214C198.171 405.359 198.589 405.79 199.041 403.83C199.949 399.897 200.255 399.097 200.849 399.097C201.733 399.097 201.675 399.617 200.299 404.033C199.403 406.91 198.909 407.87 198.328 407.87C197.58 407.87 197.361 407.334 196.377 403.079C196.003 401.463 195.646 402.029 194.881 405.446C194.466 407.3 194.145 407.87 193.516 407.87C192.864 407.87 192.432 406.986 191.433 403.599ZM212.699 407.052C211.285 405.855 210.668 404.28 210.668 401.867C210.668 398.583 211.994 396.59 214.731 395.76C216.271 395.292 218.998 396.155 219.81 397.365C221.271 399.546 220.204 400.369 218.462 398.404C216.457 396.143 212.984 397.307 212.321 400.462C211.294 405.347 216.127 408.72 218.495 404.771C218.984 403.955 219.704 403.28 220.096 403.27C221.135 403.244 220.652 405.264 219.274 406.705C218.369 407.651 217.734 407.868 215.9 407.86C214.43 407.853 213.313 407.571 212.699 407.052ZM222.943 406.844C221.98 405.407 221.96 399.097 222.918 399.097C223.426 399.097 223.58 399.683 223.58 401.606C223.58 405.236 224.167 406.582 225.669 406.4C227.231 406.211 227.983 404.63 227.991 401.521C227.996 399.677 228.156 399.097 228.66 399.097C229.203 399.097 229.323 399.892 229.323 403.483C229.323 407.075 229.203 407.87 228.66 407.87C228.296 407.87 227.998 407.655 227.998 407.392C227.998 407.063 227.732 407.063 227.143 407.392C225.663 408.221 223.693 407.963 222.943 406.844ZM231.532 406.947C231.046 406.439 230.648 405.815 230.648 405.561C230.648 404.813 232.296 405.034 232.586 405.822C232.96 406.842 235.669 406.537 235.866 405.453C235.976 404.844 235.513 404.513 233.932 404.07C232.695 403.724 231.588 403.067 231.199 402.447C230.618 401.52 230.626 401.278 231.27 400.251C232.568 398.18 237.274 398.93 237.274 401.207C237.274 402.097 236.089 402.047 235.602 401.137C235.348 400.664 234.756 400.46 233.923 400.559C231.966 400.793 232.325 401.963 234.561 402.64C235.62 402.961 236.763 403.463 237.101 403.756C237.964 404.504 237.866 406.2 236.908 407.106C235.746 408.205 232.648 408.113 231.532 406.947ZM239.94 406.977C239.688 406.486 239.483 404.824 239.483 403.283C239.483 401.101 239.336 400.482 238.82 400.482C238.456 400.482 238.157 400.17 238.157 399.789C238.157 399.408 238.442 399.097 238.791 399.097C239.153 399.097 239.484 398.553 239.564 397.827C239.647 397.071 239.972 396.557 240.366 396.557C240.761 396.557 241.085 397.071 241.168 397.827C241.248 398.553 241.579 399.097 241.941 399.097C242.29 399.097 242.575 399.408 242.575 399.789C242.575 400.17 242.277 400.482 241.912 400.482C241.391 400.482 241.25 401.123 241.25 403.483C241.25 405.844 241.391 406.485 241.912 406.485C242.277 406.485 242.575 406.797 242.575 407.178C242.575 408.209 240.489 408.05 239.94 406.977ZM245.047 406.996C243.409 405.104 243.414 401.857 245.059 399.956C245.559 399.38 246.41 399.097 247.646 399.097C250.199 399.097 251.556 400.62 251.556 403.483C251.556 406.347 250.199 407.87 247.646 407.87C246.4 407.87 245.559 407.588 245.047 406.996ZM249.276 405.721C250.918 404.167 249.831 400.482 247.731 400.482C246.389 400.482 245.225 401.839 245.225 403.403C245.225 406.038 247.54 407.363 249.276 405.721ZM253.176 403.483C253.176 399.892 253.296 399.097 253.839 399.097C254.203 399.097 254.501 399.312 254.501 399.575C254.501 399.904 254.767 399.904 255.356 399.575C256.496 398.937 258.618 398.967 259.253 399.631C259.641 400.036 259.923 400.028 260.417 399.599C260.776 399.288 261.724 399.1 262.524 399.18C264.445 399.374 265.088 400.768 265.096 404.753C265.102 407.542 265.012 407.87 264.238 407.87C263.465 407.87 263.359 407.491 263.244 404.291C263.124 400.953 263.047 400.702 262.097 400.562C260.319 400.298 259.802 401.23 259.802 404.694C259.802 407.21 259.664 407.87 259.139 407.87C258.617 407.87 258.475 407.213 258.47 404.753C258.462 401.147 258.117 400.341 256.671 400.557C255.28 400.765 254.516 402.492 254.508 405.446C254.503 407.29 254.343 407.87 253.839 407.87C253.296 407.87 253.176 407.075 253.176 403.483ZM271.929 406.737C270.186 404.914 270.776 400.217 272.853 399.383C275.021 398.513 278.354 399.739 278.354 401.405C278.354 402.138 276.709 401.941 276.428 401.175C276.099 400.279 273.772 400.27 273.064 401.162C272.767 401.536 272.524 402.581 272.524 403.483C272.524 404.386 272.767 405.431 273.064 405.805C273.866 406.815 276.022 406.666 276.588 405.562C277.055 404.649 278.354 404.264 278.354 405.037C278.354 405.257 277.943 405.984 277.439 406.654C276.184 408.321 273.484 408.362 271.929 406.737ZM280.667 406.949C278.878 405.206 279.013 401.234 280.912 399.726C281.327 399.396 282.498 399.119 283.513 399.111C284.99 399.1 285.541 399.339 286.273 400.313C287.61 402.089 287.527 405.25 286.105 406.737C284.718 408.187 282.045 408.291 280.667 406.949ZM285.176 405.459C287.109 402.575 284.012 398.789 281.699 401.207C281.317 401.607 281.005 402.631 281.005 403.483C281.005 406.287 283.75 407.587 285.176 405.459ZM288.956 401.867C288.956 396.839 289.064 395.864 289.619 395.864C290.174 395.864 290.281 396.839 290.281 401.867C290.281 406.895 290.174 407.87 289.619 407.87C289.064 407.87 288.956 406.895 288.956 401.867ZM293.916 407.561C293.115 407.224 292.048 404.896 292.048 403.483C292.048 401.957 293.126 399.756 294.056 399.383C295.689 398.728 297.836 399.102 298.915 400.23C299.751 401.104 299.999 401.848 299.999 403.483C299.999 406.289 298.587 407.887 296.154 407.834C295.232 407.814 294.225 407.691 293.916 407.561ZM297.825 405.749C298.146 405.344 298.409 404.325 298.409 403.483C298.409 401.522 297.569 400.482 295.985 400.482C294.584 400.482 293.815 401.545 293.815 403.483C293.815 405.421 294.584 406.485 295.985 406.485C296.676 406.485 297.503 406.154 297.825 405.749ZM301.324 403.483C301.324 400.007 301.454 399.097 301.95 399.097C302.294 399.097 302.667 399.356 302.778 399.674C302.94 400.135 303.098 400.135 303.566 399.674C303.888 399.356 304.509 399.097 304.946 399.097C306.175 399.097 305.882 400.164 304.414 401.038C303.156 401.786 303.091 401.973 303.091 404.847C303.091 407.563 303.001 407.87 302.208 407.87C301.386 407.87 301.324 407.563 301.324 403.483ZM307.434 407.293C306.309 406.346 306.081 405.1 307.033 405.1C307.486 405.1 307.97 405.411 308.11 405.792C308.408 406.604 311.272 406.755 311.729 405.983C312.165 405.244 311.341 404.581 308.961 403.756C307.143 403.125 306.825 402.83 306.697 401.659C306.515 399.985 307.525 399.097 309.61 399.097C311.554 399.097 312.809 399.827 312.809 400.96C312.809 402.039 311.692 402.177 311.313 401.145C311.131 400.648 310.6 400.468 309.61 400.568C307.852 400.745 307.762 401.4 309.386 402.196C310.054 402.523 311.147 403.058 311.815 403.383C313.281 404.099 313.621 405.754 312.555 406.985C311.661 408.018 308.519 408.207 307.434 407.293ZM49.5404 402.998C49.5404 402.424 49.9972 402.309 51.8248 402.42C55.0966 402.62 55.2505 403.714 52.0067 403.714C50.0721 403.714 49.5404 403.56 49.5404 402.998ZM46.4484 396.788C46.4484 396.275 46.7428 395.864 47.111 395.864C47.4791 395.864 47.7735 396.275 47.7735 396.788C47.7735 397.301 47.4791 397.711 47.111 397.711C46.7428 397.711 46.4484 397.301 46.4484 396.788ZM68.0929 396.788C68.0929 396.275 68.3874 395.864 68.7555 395.864C69.1236 395.864 69.4181 396.275 69.4181 396.788C69.4181 397.301 69.1236 397.711 68.7555 397.711C68.3874 397.711 68.0929 397.301 68.0929 396.788ZM164.61 367.724C158.692 367.356 157.853 367.234 152.794 366.009C150.157 365.37 149.812 365.162 149.812 364.204C149.812 361.567 153.038 356.573 159.287 349.533C164.505 343.655 171.425 337.465 179.793 331.19C183.104 328.707 186.608 326.041 187.58 325.264C190.713 322.761 198.026 318.327 204.145 315.219C217.097 308.641 226.42 305.792 241.25 303.881C249.671 302.796 254.307 303.092 260.465 305.108C262.408 305.744 264.41 306.268 264.914 306.272C265.486 306.276 267.197 304.814 269.47 302.379C273.724 297.824 273.732 297.44 269.623 295.512C264.263 292.998 257.766 291.964 247.434 291.982C240.555 291.994 238.858 292.178 228.66 294.016C216.051 296.288 202.775 301.45 189.319 309.312C181.803 313.704 165.009 326.401 156.78 333.914C151.345 338.876 139.303 352.634 136.16 357.472C135.148 359.031 134.169 360.307 133.986 360.307C132.675 360.307 127.873 358.603 125.35 357.242C123.679 356.341 121.089 355.122 119.594 354.534C116.705 353.397 107.336 348.462 103.652 346.136C92.1432 338.87 87.9648 335.551 78.5894 326.226C70.9596 318.637 67.4275 314.385 58.9505 302.584C51.6511 292.422 42.2892 272.446 37.8339 257.527C36.986 254.687 35.2968 248.026 34.0802 242.725C31.984 233.59 31.8311 232.488 31.1564 221.655C30.2758 207.515 30.8 188.889 32.279 181.763C32.7608 179.442 33.2033 176.689 33.2621 175.646C33.3855 173.46 33.1824 173.243 28.6648 170.733C21.2235 166.6 12.5139 157.369 7.62187 148.432C4.67576 143.05 1.56282 134.185 0.726751 128.796C-1.36554 115.31 1.18442 98.1459 6.77462 88.0869C15.8147 71.8203 28.9804 62.6136 44.6357 61.611C54.0883 61.0056 64.3523 62.4828 69.639 65.2095C74.3753 67.6524 77.8196 72.085 77.8028 75.7159C77.7923 77.9852 75.0723 84.8766 73.5067 86.6004C71.7289 88.5577 69.3092 89.7032 66.9525 89.7032C65.82 89.7032 62.1844 89.0562 58.8734 88.2654C52.1782 86.6664 45.2065 86.3015 41.5894 87.3609C39.0301 88.1105 35.5326 90.3989 32.097 93.5718C29.9824 95.5247 28.9587 96.954 27.5369 99.9387C24.8582 105.562 24.1386 109.818 24.1533 119.95C24.1647 127.844 24.2263 128.436 25.3758 131.725C26.9253 136.159 28.943 139.205 32.9948 143.229C36.3289 146.54 38.6529 147.641 40.2259 146.656C40.6114 146.415 42.8206 142.281 45.1352 137.471C49.8161 127.742 55.8001 117.36 60.5571 110.714C68.5707 99.5195 79.1041 88.4409 89.5166 80.256C98.1976 73.4322 109.901 66.0827 115.736 63.7915C117.587 63.0645 118.667 62.354 118.907 61.7055C119.107 61.1646 119.796 57.8397 120.438 54.317C124.437 32.3791 134.24 14.7844 145.616 9.12649C151.132 6.38316 152.742 5.96285 157.763 5.95584C162.845 5.94875 164.85 6.40322 169.219 8.55248C175.388 11.5871 180.432 19.0235 182.085 27.5208C182.987 32.1595 183.825 41.6443 183.825 47.2172C183.825 50.7753 183.825 50.7753 187.824 51.072C194.744 51.5855 205.471 53.22 211.433 54.6692C228.731 58.8739 248.048 67.9181 259.511 77.1783C262.09 79.2619 263.415 80.0184 264.8 80.1983C265.817 80.3303 275.594 80.5619 286.526 80.7129C297.459 80.8638 310.976 81.1303 316.564 81.3049C328.018 81.663 328.799 81.8756 331.919 85.4862C333.79 87.6516 334.203 89.4142 333.919 94.037C333.663 98.2073 332.283 101.453 329.232 105.06C327.305 107.339 326.063 109.92 326.067 111.638C326.067 111.892 325.084 115.424 323.88 119.488C321.667 126.965 316.741 144.34 315.632 148.58C314.985 151.057 315.209 152.012 319.902 166.821C321.341 171.36 322.433 177.089 324.086 188.755C325.142 196.211 325.263 198.376 325.257 209.766C325.25 223.289 325.055 225.333 322.306 240.706C320.379 251.478 314.505 269.124 309.123 280.307C304.777 289.337 300.562 296.501 294.58 305.026C292.381 308.161 292.381 308.161 293.808 312.331C294.984 315.768 295.226 317.131 295.185 320.077C295.055 329.359 290.441 338.375 282.966 343.95C279.074 346.854 275.098 348.616 268.206 350.491C262.371 352.079 261.968 352.124 250.967 352.424C244.772 352.593 239.306 352.901 238.82 353.109C238.334 353.316 236.446 354.179 234.624 355.027C227.828 358.187 220.569 360.905 214.982 362.381C209.106 363.934 196.32 366.377 189.568 367.238C184.359 367.902 171.488 368.153 164.61 367.724ZM191.997 361.222C195.556 360.916 199.112 360.242 202.819 359.17C205.856 358.292 210.13 357.144 212.316 356.62C219.87 354.807 230.648 350.757 230.648 349.731C230.648 349.258 220.121 345.53 218.786 345.53C218.279 345.53 216.298 346.127 214.384 346.857C211.113 348.106 208.214 348.781 196.414 351.044C187.898 352.677 182.811 353.059 173.367 352.772C163.076 352.46 163.602 352.282 160.111 357.239C158.344 359.75 158.233 360.056 158.942 360.47C160.712 361.506 182.838 362.009 191.997 361.222ZM133.112 351.649C134.711 349.857 136.638 346.497 136.348 346.007C136.214 345.78 134.07 344.763 131.584 343.746C122.8 340.156 111.703 334.237 104.977 329.556C95.6175 323.042 83.4479 310.82 74.4413 298.889C71.9321 295.566 65.8589 285.903 62.6867 280.188C50.8085 258.788 44.6909 233.677 44.6862 206.303C44.685 199.808 45.6362 186.768 46.4524 182.09C46.6931 180.71 46.8901 179.315 46.8901 178.991C46.8901 178.337 42.9909 176.98 41.1115 176.98C40.0391 176.98 39.8605 177.214 39.4422 179.173C38.1683 185.138 36.7354 200.576 36.731 208.381C36.727 215.686 37.9207 230.234 39.0045 236.088C41.4694 249.401 43.6002 257.023 47.9636 268.135C56.0011 288.605 65.9866 304.153 81.3817 320.169C88.7949 327.882 94.8292 332.994 102.327 337.915C112.248 344.426 128.457 352.883 131.067 352.909C131.568 352.914 132.488 352.347 133.112 351.649ZM270.355 344.237C278.858 341.205 283.314 337.382 287.142 329.835C288.727 326.709 289.122 325.435 289.296 322.882C289.591 318.578 289.117 315.514 288.156 315.514C287.08 315.514 280.444 322.828 278.202 326.485C276.032 330.024 274.139 331.34 268.637 333.135C265.655 334.108 264.506 334.215 257.152 334.201C244.433 334.178 233.766 332.092 225.277 327.969C222.678 326.706 220.417 325.673 220.25 325.673C220.084 325.673 218.331 324.66 216.353 323.421C214.376 322.182 212.024 320.898 211.127 320.567C209.585 319.998 209.319 320.057 206.264 321.635C204.487 322.553 202.245 324.016 201.283 324.886C199.533 326.467 199.533 326.467 200.845 327.694C201.567 328.369 203.934 330.182 206.105 331.723C213.08 336.67 219.833 339.853 230.013 342.991C239.654 345.964 243.078 346.417 254.943 346.293C264.882 346.189 264.882 346.189 270.355 344.237ZM192.189 345.518C195.041 345.131 208.083 342.028 208.444 341.65C208.516 341.575 207.429 340.724 206.029 339.759C204.628 338.794 201.494 336.408 199.065 334.456C193.193 329.739 193.03 329.655 191.197 330.456C190.382 330.812 188.508 332.011 187.034 333.122C185.559 334.232 182.679 336.337 180.633 337.801C175.739 341.302 172.09 344.734 172.509 345.441C172.914 346.126 187.293 346.182 192.189 345.518ZM147.968 334.721C150.561 332.116 155.367 327.725 158.647 324.964C161.927 322.204 165.822 318.896 167.303 317.614C168.783 316.332 171.928 313.755 174.291 311.888C176.654 310.02 178.692 308.206 178.821 307.855C179.048 307.238 178.19 305.463 173.96 297.8C172.858 295.803 171.415 292.79 170.755 291.104C170.094 289.418 168.696 285.856 167.649 283.189C165.748 278.349 163.286 268.396 161.938 260.1C161.546 257.688 160.841 253.978 160.371 251.857C159.902 249.736 159.209 246 158.833 243.554C158.456 241.108 158.067 239.022 157.967 238.917C157.403 238.328 153.815 243.597 148.961 252.139C147.056 255.491 147.056 255.491 147.772 258.468C149.643 266.255 147.908 275.032 143.234 281.422C139.956 285.904 135.997 288.553 130.948 289.642C124.62 291.007 120.171 289.221 117.794 284.361C116.523 281.764 116.463 281.382 116.489 276.064C116.522 269.454 117.039 267.137 120.514 258.042C122.992 251.557 122.992 251.557 123.336 240.013C123.525 233.663 123.826 224.157 124.005 218.886C124.266 211.203 124.218 209.304 123.762 209.304C123.449 209.304 121.157 210.254 118.669 211.415C115.491 212.899 114.004 213.851 113.67 214.619C113.408 215.219 112.28 220.659 111.163 226.707C110.046 232.756 107.763 245.081 106.088 254.097C104.414 263.114 102.602 273.467 102.061 277.104C100.926 284.743 100.551 285.465 96.9994 286.854C91.9166 288.843 85.847 287.592 82.3648 283.84C79.2799 280.516 78.9211 277.485 80.7027 269.798C81.3207 267.131 82.5024 260.689 83.3287 255.483C84.1549 250.276 85.1494 244.458 85.5385 242.553C85.9277 240.648 87.5215 231.816 89.0803 222.927C94.297 193.179 95.515 186.476 96.605 181.516C97.861 175.8 97.9966 173.286 97.0488 173.286C96.6969 173.286 94.8582 173.79 92.9628 174.407C87.5668 176.163 86.4638 176.413 78.4735 177.686C73.766 178.435 68.047 178.984 63.1459 179.156C55.3276 179.43 55.3276 179.43 54.2202 184.324C52.4247 192.257 51.2044 208.071 51.7759 216C52.8148 230.416 55.5178 244.526 59.4729 256.182C64.725 271.659 74.1448 288.02 85.1258 300.737C97.3007 314.837 106.859 322.922 120.601 330.747C129.498 335.812 141.072 340.663 142.446 339.903C142.889 339.658 145.374 337.326 147.968 334.721ZM263.866 327.002C268.701 325.93 269.753 325.019 279.951 313.07C282.941 309.567 286.094 305.723 286.959 304.527C296.636 291.14 299.781 286.016 304.163 276.494C308.169 267.787 310.745 260.834 312.972 252.712C315.296 244.236 315.922 241.041 317.537 229.392C320.308 209.417 318.489 185.07 312.745 165.226C311.786 161.913 310.423 157.747 309.717 155.969C309.01 154.191 307.887 151.282 307.221 149.504C305.446 144.765 299.656 133.032 296.514 127.807C292.73 121.513 285.616 111.171 283.461 108.831C281.667 106.884 281.667 106.884 277.436 106.556C275.109 106.376 272.856 106.303 272.43 106.394C271.826 106.522 272.435 107.518 275.216 110.945C281.459 118.641 287.296 126.764 289.318 130.571C290.397 132.603 292.326 135.927 293.605 137.959C295.508 140.983 299.557 149.733 299.557 150.821C299.557 150.976 300.836 154.813 302.4 159.348C305.245 167.603 308.778 181.557 309.67 188.063C313.58 216.601 308.802 247.593 296.504 273.455C293.7 279.353 288.858 288.251 286.811 291.271C278.03 304.222 268.102 315.416 258.843 322.806C256.25 324.876 254.002 326.783 253.847 327.045C253.459 327.7 260.855 327.669 263.866 327.002ZM243.237 324.811C244.691 324.118 254.115 316.947 258.477 313.215C259.55 312.297 259.557 312.251 258.739 311.595C257.131 310.306 253.054 309.362 249.201 309.386C240.078 309.444 219.132 314.611 219.169 316.795C219.18 317.464 227.86 322.373 230.395 323.144C232.865 323.894 240.085 325.583 241.029 325.631C241.272 325.643 242.265 325.274 243.237 324.811ZM187.845 303.022C190.216 301.758 194.427 298.928 194.427 298.599C194.427 298.454 193.021 295.635 191.303 292.333C187.981 285.948 186.468 282.12 182.93 271.146C177.908 255.573 175.201 238.571 174.7 219.464C174.445 209.732 174.505 208.518 175.637 200.3C176.906 191.096 178.935 182.921 181.082 178.365C182.15 176.1 182.444 175.809 183.806 175.674C185.499 175.505 186.475 176.42 186.475 178.174C186.475 178.734 185.879 180.657 185.15 182.448C184.421 184.238 183.833 186.182 183.843 186.767C183.86 187.725 184.035 187.631 185.592 185.831C190.037 180.693 190.796 170.463 187.225 163.843C185.369 160.403 181.982 160.655 177.92 164.536C174.841 167.479 172.79 170.722 170.308 176.572C167.05 184.254 165.975 189.671 164.36 206.534C163.365 216.921 163.374 221.722 164.422 237.473C165.137 248.229 168.235 264.372 171.629 275.027C173.882 282.1 177.418 291.814 178.02 292.585C178.249 292.878 179.247 294.78 180.238 296.812C182.254 300.946 184.444 303.97 185.421 303.97C185.777 303.97 186.868 303.543 187.845 303.022ZM204.634 295.475C210.728 292.548 223.855 288.594 229.323 288.04C230.902 287.879 234.48 287.427 237.274 287.033C249.504 285.312 263.652 286.499 271.528 289.907C276.49 292.054 277.467 292.008 279.351 289.539C280.838 287.589 283.537 283.198 287.122 276.893C292.261 267.857 298.402 250.433 300.655 238.495C302.901 226.595 303.194 223.703 303.414 211.25C303.721 193.872 303.185 191.67 300.618 199.757C299.345 203.77 297.033 209.569 291.936 221.542C282.738 243.149 275.786 252.97 262.282 263.437C256.27 268.097 245.527 272.832 236.749 274.692C232.701 275.549 223.048 275.388 219.884 274.409C216.767 273.445 210.149 269.854 207.237 267.548C199.175 261.164 193.157 248.74 192.356 236.827C191.942 230.681 193.523 221.269 195.912 215.651C198.828 208.794 206.134 199.521 210.902 196.625C212.068 195.917 215.248 194.496 217.97 193.469C222.308 191.831 223.408 191.596 226.893 191.563C231.44 191.521 233.348 192.293 236.206 195.332C238.659 197.94 239.68 200.622 239.678 204.456C239.677 208.054 238.752 210.457 236.541 212.6C234.799 214.289 233.359 214.959 227.841 216.644C219.982 219.045 218.632 220.089 216.037 225.773C214.15 229.905 214.128 233.508 215.963 237.608C217.538 241.126 221.502 245.321 224.906 247.074C227.155 248.232 227.745 248.325 232.866 248.325C238.198 248.325 238.5 248.272 241.259 246.847C244.709 245.066 252.512 238.66 255.727 234.968C258.253 232.069 261.59 227.502 264.773 222.591C269.78 214.863 277.919 194.955 282.76 178.596C284.263 173.516 286.363 166.451 287.428 162.895C291.32 149.889 291.399 150.922 285.686 140.079C283.08 135.133 282.428 134.095 276.318 125.178C272.839 120.101 262.805 108.903 259.234 106.113C257.618 104.851 257.344 104.799 251.282 104.603C247.829 104.491 240.432 104.609 234.844 104.866C223.657 105.38 220.416 106.03 215.412 108.768C212.333 110.452 207.264 115.562 205.9 118.356C203.003 124.292 203.52 131.665 207.365 139.272C209.016 142.538 214.823 148.331 218.059 149.94C224.202 152.995 227.671 154.352 231.028 155.012C238.027 156.388 240.603 155.929 245.823 152.378C248.772 150.371 249.678 149.988 251.872 149.823C257.921 149.365 263.021 154.891 263.086 161.972C263.123 166.126 262.063 168.355 258.198 172.242C253.425 177.042 247.844 179.325 238.552 180.278C232.456 180.903 227.929 180.368 220.884 178.19C208.175 174.261 200.293 168.41 191.884 156.661C186.922 149.728 183.25 141.049 182.074 133.473C181.495 129.748 181.495 122.158 182.074 118.433C183.319 110.411 187.076 102.812 193.178 95.9743C198.914 89.5477 206.771 84.583 214.17 82.711C216.404 82.1457 218.13 81.5107 218.005 81.2997C216.99 79.5835 206.282 76.5296 194.112 74.4858C184.661 72.8985 183.69 72.8295 183.002 73.6961C182.299 74.5811 181.315 77.6316 179.802 83.6085C176.882 95.148 172.642 105.647 167.735 113.485C166.463 115.517 164.295 119.049 162.917 121.335C158.469 128.717 147.382 141.996 141.199 147.35C139.255 149.033 135.971 151.972 133.901 153.882C131.831 155.792 128.817 158.393 127.203 159.663C125.589 160.933 124.046 162.344 123.774 162.798C122.703 164.588 119.457 181.761 119.842 183.601C119.963 184.175 120.798 183.799 123.705 181.864C125.744 180.506 127.571 179.101 127.763 178.742C127.955 178.383 129.133 174.467 130.38 170.04C133.22 159.96 135.62 154.885 139.142 151.51C142.628 148.17 145.067 146.651 149.062 145.332C157.707 142.476 164.405 145.338 166.931 152.967C169.138 159.632 168.792 162.252 164.504 171.312C162.026 176.548 160.907 178.33 157.816 181.96C155.774 184.357 152.946 187.259 151.53 188.408C148.384 190.962 147.803 192.42 147.177 199.341C146.597 205.747 146.595 209.304 147.171 209.304C147.419 209.304 148.264 208.335 149.048 207.151C149.833 205.967 151.985 202.886 153.83 200.304C157.863 194.663 160.589 190.467 161.023 189.232C161.199 188.732 161.526 186.82 161.748 184.982C161.971 183.144 162.752 180.021 163.484 178.04C164.953 174.066 169.956 164.409 172.057 161.494C175.172 157.171 180.633 154.024 184.083 154.565C188.856 155.313 192.325 159.132 194.48 166.008C195.898 170.532 195.886 178.471 194.454 182.904C193.112 187.061 191.982 188.724 186.309 194.891C181.932 199.649 181.234 200.623 180.925 202.407C180.729 203.534 180.586 210.378 180.606 217.617C180.637 228.493 180.799 231.779 181.538 236.55C182.031 239.724 182.855 245.076 183.371 248.442C183.887 251.808 184.997 257.186 185.838 260.394C186.679 263.601 187.658 267.537 188.013 269.14C189.093 274.006 194.869 288.67 197.002 291.962C199.088 295.179 200.579 297.043 201.067 297.043C201.234 297.043 202.839 296.337 204.634 295.475ZM132.556 281.963C135.392 280.486 138.879 276.869 140.961 273.246C142.177 271.13 142.527 269.976 142.671 267.615C142.771 265.982 142.66 264.445 142.425 264.199C141.804 263.55 139.947 266.291 137.778 271.06C136.765 273.286 135.729 275.261 135.475 275.448C133.995 276.537 132.585 274.998 132.585 272.291C132.585 269.73 133.953 266.236 137.991 258.484C143.913 247.117 150.208 236.32 155.58 228.315C157.542 225.39 157.542 225.39 157.693 217.987C157.845 210.453 157.61 207.457 156.867 207.457C156.223 207.457 149.493 217.284 142.634 228.238C134.327 241.504 130.881 247.57 127.418 255.021C120.831 269.194 119.642 277.296 123.52 281.595C124.847 283.065 125.163 283.189 127.581 283.189C129.533 283.189 130.804 282.876 132.556 281.963ZM94.0346 281.43C94.6009 281.054 96.6981 272.017 97.9009 264.77C98.2856 262.451 99.0832 258.319 99.6732 255.587C100.263 252.855 101.056 248.544 101.435 246.009C101.814 243.473 102.611 239.216 103.206 236.55C103.8 233.883 104.892 227.96 105.63 223.389C107.837 209.739 108.211 209.053 115.466 205.365C121.341 202.378 123.165 201.104 123.712 199.607C124.291 198.02 126.091 188.97 125.872 188.742C125.775 188.64 124.513 189.308 123.067 190.226C117.146 193.985 112.586 195.476 111.988 193.848C111.721 193.12 113.564 181.606 114.983 175.133C115.457 172.974 116.516 167.354 117.337 162.645C118.158 157.935 119.153 152.636 119.548 150.869C119.944 149.102 120.763 144.644 121.37 140.961C121.977 137.278 123.465 129.507 124.677 123.692C125.889 117.877 127.251 110.6 127.703 107.522C128.155 104.443 128.836 100.785 129.216 99.3924C129.596 98 130.525 93.1204 131.28 88.5487C132.035 83.9771 133.016 78.5743 133.459 76.5424C133.901 74.5106 134.596 70.6663 135.001 67.9995C135.987 61.5222 139.829 46.6149 141.85 41.4298C143.813 36.3918 147.437 30.3535 149.885 28.0417C153.464 24.6611 157.834 23.7024 161.573 25.4774C163.016 26.1623 163.636 26.8573 164.55 28.8151C166.15 32.2419 166.565 34.7868 166.889 43.1607C167.17 50.4157 167.17 50.4157 169.139 50.7243C171.266 51.0577 176.199 50.7286 176.682 50.2212C176.845 50.0498 176.949 46.0314 176.914 41.2914C176.855 33.408 176.749 32.3189 175.669 28.5176C173.257 20.022 170.541 15.885 165.927 13.6767C162.276 11.9295 158.669 11.4281 154.523 12.0917C149.546 12.8881 146.917 14.2629 143.074 18.0793C135.379 25.7203 129.523 38.5873 127.733 51.7884C127.481 53.6424 126.784 56.9574 126.185 59.1551C125.585 61.3527 124.707 65.6567 124.233 68.7195C123.76 71.7823 122.858 76.5225 122.228 79.2532C121.599 81.984 120.576 87.2706 119.956 91.0013C119.335 94.732 118.361 99.8624 117.791 102.402C117.221 104.942 116.535 108.698 116.266 110.748C115.998 112.799 115.181 117.474 114.451 121.138C113.721 124.802 112.822 129.564 112.453 131.72C112.084 133.876 110.809 140.734 109.618 146.959C108.428 153.184 106.937 161.187 106.305 164.743C105.673 168.298 104.545 174.325 103.8 178.134C103.054 181.944 102.1 187.243 101.68 189.91C101.26 192.576 100.198 198.499 99.3197 203.07C98.4416 207.642 96.9308 215.746 95.9622 221.08C92.1595 242.021 90.0511 253.298 88.4079 261.486C86.0531 273.219 85.5669 277.499 86.4317 278.879C87.7745 281.021 92.3422 282.554 94.0346 281.43ZM233.519 268.406C240.319 267.752 242.223 267.281 248.265 264.758C255.63 261.683 258.903 259.512 264.954 253.684C273.621 245.337 275.994 241.847 283.72 226.082C288.556 216.213 295.311 199.065 298.242 189.217C300.317 182.242 300.66 178.44 299.596 174.209C298.883 171.373 295.092 161.741 294.689 161.741C294.233 161.741 293.6 163.583 292.309 168.668C288.871 182.205 280.594 204.503 274.483 216.693C269.273 227.085 267.926 229.334 264.251 233.779C262.886 235.43 260.88 237.909 259.794 239.289C257.619 242.05 251.136 247.87 247.664 250.176C244.69 252.152 235.021 255.483 232.257 255.483C227.603 255.483 220.112 252.437 216.428 249.046C212.767 245.678 209.428 238.783 208.778 233.251C208.053 227.079 212.866 217.44 218.581 213.618C221.557 211.627 226.03 209.677 229.374 208.911C230.886 208.564 232.236 207.917 232.833 207.253C234.128 205.811 234.458 203.038 233.591 200.871C232.017 196.931 227.645 196.231 221.402 198.919C213.15 202.472 209.667 205.339 204.295 212.999C200.735 218.076 197.955 228.283 197.967 236.233C197.975 241.755 198.844 245.48 201.379 250.865C205.776 260.204 214.791 267.07 224.346 268.355C228.56 268.922 228.175 268.92 233.519 268.406ZM131.021 235.279C131.74 234.073 133.628 231.051 135.217 228.563C140.194 220.772 140.079 221.047 140.089 216.924C140.136 197.505 145.691 168.389 150.212 163.861C151.99 162.08 154.083 162.313 155.257 164.422C156.107 165.949 156.107 165.949 154.102 170.425C152.218 174.632 150.874 178.706 151.243 179.092C151.334 179.186 152.143 178.63 153.041 177.856C155.192 176.002 158.318 171.376 160.078 167.442C161.337 164.625 161.493 163.823 161.505 160.084C161.518 155.9 161.512 155.88 159.841 153.746C156.962 150.071 153.063 149.785 147.482 152.841C140.928 156.429 137.028 163.475 134.105 177.01C132.915 182.522 131.465 194.06 131.035 201.454C130.879 204.121 130.465 209.524 130.115 213.461C129.282 222.828 128.793 237.473 129.313 237.472C129.533 237.472 130.302 236.485 131.021 235.279ZM243.9 173.028C247.899 172.046 253.007 169.3 255.495 166.794C257.35 164.927 257.593 164.454 257.593 162.727C257.593 160.42 256.737 158.499 255.113 157.164C253.285 155.66 251.689 155.949 247.703 158.504C243.28 161.34 240.641 161.935 233.961 161.605C228.68 161.345 223.159 159.922 219.027 157.757C211.059 153.582 206.477 149.587 202.754 143.568C200.628 140.132 199.525 137.035 198.57 131.825C197.829 127.787 197.833 127.549 198.741 122.519C199.985 115.629 200.904 113.785 205.432 109.094C209.455 104.927 212.204 103.136 217.766 101.062C224.224 98.6535 227.158 98.4359 249.201 98.7306C260.255 98.8785 275.945 99.2975 284.068 99.6618C292.191 100.026 301.049 100.324 303.751 100.324C307.063 100.324 308.918 100.518 309.443 100.919C310.179 101.482 310.161 101.682 309.105 104.615C308.491 106.321 307.773 109.014 307.511 110.601C307.248 112.187 306.413 115.661 305.654 118.32C303.642 125.379 303.686 125.712 307.691 133.692C309.573 137.441 311.277 140.402 311.478 140.272C311.968 139.956 315.284 128.846 320.434 110.272C322.713 102.053 322.752 101.961 324.875 99.882C327.502 97.309 328.27 95.8469 328.27 93.4136C328.27 91.9192 327.961 91.1852 326.755 89.8118C325.24 88.0869 325.24 88.0869 315.601 88.0869C310.3 88.0869 292.832 87.8072 276.784 87.4652C242.471 86.7341 220.511 86.9149 217.175 87.956C212.844 89.3077 207.855 91.6314 204.994 93.6289C201.933 95.7667 197.083 100.505 194.322 104.055C192.457 106.452 189.497 113.105 188.482 117.18C186.903 123.516 188.082 136.171 190.844 142.539C192.568 146.515 199.029 156.48 201.462 158.915C209.436 166.9 217.537 171.432 226.231 172.772C228.053 173.053 230.041 173.359 230.648 173.452C233.663 173.915 241.283 173.671 243.9 173.028ZM73.7489 171.176C83.9574 169.905 97.4805 166.576 99.0335 164.953C99.5081 164.457 100.061 162.516 100.493 159.831C101.599 152.951 101.616 152.505 100.773 152.505C100.367 152.505 97.2581 153.527 93.864 154.775C82.6822 158.887 72.6171 160.563 61.0852 160.234C54.2116 160.038 52.6458 159.84 47.7761 158.547C39.3871 156.32 32.3535 151.896 26.5933 145.224C18.8623 136.269 16.18 120.361 19.8015 104.942C20.7256 101.007 23.5071 94.7462 25.6476 91.7825C27.6265 89.0423 32.5188 85.0124 36.9513 82.4712C40.0433 80.6984 40.0433 80.6984 48.2153 80.5564C56.2665 80.4164 56.4516 80.4352 60.7484 81.8263C65.6442 83.4114 66.7332 83.5195 68.4509 82.5908C69.9598 81.7751 71.6267 78.7253 71.6267 76.7802C71.6267 72.1393 67.9846 69.8356 58.0621 68.2005C52.3178 67.2539 41.6271 67.5068 37.4017 68.6892C26.9874 71.6036 17.6746 79.7312 11.2202 91.5389C8.75192 96.0542 7.3132 100.892 6.4432 107.602C5.18866 117.278 5.73871 127.777 7.86437 134.727C9.25372 139.27 13.219 147.262 15.9973 151.12C23.2987 161.259 31.4929 166.746 44.6254 170.291C52.4487 172.403 61.6454 172.682 73.7489 171.176ZM72.9519 152.955C77.7898 152.51 84.7309 151.037 89.5166 149.438C95.4875 147.443 101.787 143.86 103.153 141.681C103.951 140.406 112.273 97.2733 112.268 94.4364C112.264 92.5899 110.814 93.1005 105.069 96.9721C91.82 105.9 79.8352 119.88 70.3341 137.49C66.2662 145.029 64.5219 148.908 64.2517 151.014C64.0134 152.871 64.0324 152.903 65.4992 153.091C66.3184 153.195 67.1874 153.313 67.4303 153.351C67.6733 153.39 70.158 153.211 72.9519 152.955ZM58.4381 143.37C62.9088 133.814 68.7392 124.087 73.875 117.616C81.0241 108.609 83.8765 105.334 88.0858 101.302C94.0301 95.6083 101.263 89.9839 108.681 85.2881C114.309 81.7247 114.743 81.348 115.44 79.415C116.276 77.0969 116.983 71.6937 116.451 71.6937C115.267 71.6937 101.144 81.1199 94.3857 86.4204C90.7106 89.3028 81.4931 97.9857 77.0893 102.713C71.8174 108.373 61.4272 122.141 58.157 127.8C53.4549 135.937 47.7735 148.243 47.7735 150.291C47.7735 150.933 51.3773 152.486 52.8534 152.48C54.1359 152.475 54.3157 152.182 58.4381 143.37ZM135.302 143.402C145.454 133.915 151.48 126.625 159.066 114.655C164.353 106.313 166.119 102.774 169.976 92.8009C172.231 86.9706 175.432 75.8806 175.432 73.8988C175.432 73.4754 167.981 73.4264 165.622 73.8342C164.068 74.1028 163.938 74.2634 163.111 76.9462C162.632 78.502 161.991 81.0217 161.687 82.5456C161.076 85.61 157.939 94.1895 156.114 97.7844C154.363 101.233 145.811 114.49 140.822 121.49C138.408 124.877 134.865 129.24 132.949 131.187C131.032 133.134 129.161 135.205 128.791 135.789C128.421 136.374 127.843 138.556 127.506 140.638C127.17 142.72 126.588 145.879 126.213 147.657C125.839 149.435 125.529 151.174 125.525 151.522C125.516 152.299 127.91 150.311 135.302 143.402ZM136.782 116.256C145.257 103.977 150.713 93.738 154.621 82.7765C157.079 75.8824 157.158 75.388 155.792 75.388C154.599 75.388 142.489 78.2788 140.223 79.1047C139.462 79.3818 138.747 79.8615 138.634 80.1708C138.217 81.3067 130.806 122.476 130.839 123.475C130.865 124.289 133.166 121.495 136.782 116.256ZM299.226 111.997C299.645 111.512 300.111 110.477 300.26 109.697C300.531 108.278 300.531 108.278 297.355 107.944C295.492 107.749 294.005 107.791 293.761 108.046C293.501 108.318 294.035 109.454 295.187 111.08C297.138 113.832 297.555 113.927 299.226 111.997ZM250.967 79.6416C250.967 79.145 247.336 76.923 241.25 73.6949C236.289 71.0641 234.421 70.1839 224.906 65.9937C218.449 63.1505 208.406 60.4014 199.045 58.915C191.962 57.7904 189.885 57.6551 179.629 57.6504C170.442 57.6462 166.464 57.8542 159.751 58.6901C150.859 59.7973 149.357 60.1035 145.229 61.6512C143.065 62.4626 142.528 62.8879 142 64.2094C141.205 66.1982 140.711 70.3084 141.267 70.3084C141.494 70.3084 143.56 69.7988 145.857 69.1761C164.223 64.1968 184.871 63.7711 204.445 67.9683C211.753 69.5353 221.029 72.6915 227.998 75.9826C231.763 77.761 235.64 79.3677 236.611 79.5531C239.045 80.0173 250.967 80.0907 250.967 79.6416ZM152.97 52.9266C160.893 51.5075 160.097 52.4331 160.657 43.9868C161.076 37.6595 159.87 31.6464 158.033 30.9098C155.594 29.9312 151.179 33.9904 148.696 39.4937C147.207 42.7949 144.07 52.6358 144.07 54.0067C144.07 54.5156 144.35 54.6378 145.064 54.4401C145.61 54.2885 149.168 53.6075 152.97 52.9266ZM109.403 -12.8953C106.963 -20.0467 105.64 -24.0098 105.64 -24.1642C105.64 -24.2701 106.021 -24.3568 106.487 -24.3568C107.167 -24.3568 107.613 -23.4695 108.75 -19.8544C109.529 -17.3781 110.302 -15.1957 110.466 -15.0046C110.631 -14.8135 111.441 -16.8395 112.265 -19.5069C113.462 -23.3784 113.931 -24.3568 114.591 -24.3568C115.539 -24.3568 115.616 -24.7242 113.146 -17.4698C111.806 -13.531 111.301 -12.5526 110.547 -12.4335C110.032 -12.3522 109.518 -12.56 109.403 -12.8953ZM116.59 -12.98C115.503 -13.8435 114.816 -16.0376 115.114 -17.6977C115.947 -22.3392 121.953 -22.1218 122.509 -17.43C122.642 -16.3097 122.558 -16.2715 119.664 -16.139C117.638 -16.0462 116.683 -15.817 116.683 -15.4233C116.683 -13.8197 119.596 -13.0907 120.658 -14.4285C121.28 -15.211 122.425 -15.3607 122.425 -14.6594C122.425 -14.4054 122.028 -13.782 121.542 -13.274C120.519 -12.205 117.771 -12.0418 116.59 -12.98ZM120.79 -17.7216C120.943 -17.882 120.87 -18.4015 120.627 -18.8761C119.831 -20.4309 116.683 -19.7558 116.683 -18.0304C116.683 -17.4091 120.236 -17.1421 120.79 -17.7216ZM124.684 -13.4492C123.385 -14.8947 123.302 -17.9647 124.515 -19.6705C126.08 -21.8709 130.818 -21.3479 130.818 -18.9747C130.818 -18.1413 129.735 -18.1852 129.051 -19.0463C127.687 -20.7641 125.076 -19.1945 125.076 -16.6571C125.076 -14.1205 127.981 -12.697 129.154 -14.6594C129.858 -15.8377 130.818 -15.8528 130.818 -14.6855C130.818 -12.383 126.436 -11.4997 124.684 -13.4492ZM133.557 -12.9046C133.248 -13.2269 133.027 -14.7722 133.027 -16.5988C133.027 -19.0822 132.888 -19.7389 132.364 -19.7389C132 -19.7389 131.701 -20.0506 131.701 -20.4316C131.701 -20.8126 132 -21.1243 132.364 -21.1243C132.806 -21.1243 133.027 -21.5861 133.027 -22.5096C133.027 -23.4332 133.248 -23.895 133.689 -23.895C134.131 -23.895 134.352 -23.4332 134.352 -22.5096C134.352 -21.4321 134.548 -21.1243 135.235 -21.1243C135.726 -21.1243 136.119 -20.8164 136.119 -20.4316C136.119 -20.0468 135.726 -19.7389 135.235 -19.7389C134.448 -19.7389 134.352 -19.4311 134.352 -16.925C134.352 -14.4995 134.474 -14.0778 135.235 -13.8696C135.721 -13.7368 136.119 -13.3406 136.119 -12.9893C136.119 -12.2023 134.286 -12.1418 133.557 -12.9046ZM138.431 -13.2722C136.642 -15.0144 136.777 -18.9864 138.676 -20.4947C139.092 -20.8248 140.262 -21.1015 141.277 -21.1096C142.754 -21.1214 143.305 -20.8813 144.038 -19.9076C145.374 -18.1318 145.291 -14.9703 143.869 -13.4839C142.482 -12.0343 139.809 -11.9302 138.431 -13.2722ZM142.94 -14.7621C144.873 -17.6463 141.777 -21.4317 139.463 -19.0133C139.081 -18.6142 138.769 -17.59 138.769 -16.7374C138.769 -13.9343 141.515 -12.6342 142.94 -14.7621ZM146.72 -16.7374C146.72 -20.329 146.84 -21.1243 147.383 -21.1243C147.747 -21.1243 148.045 -20.7977 148.045 -20.3986C148.045 -19.7389 148.108 -19.7389 148.739 -20.3986C149.621 -21.3204 151.137 -21.3413 151.137 -20.4316C151.137 -20.0506 150.93 -19.7389 150.676 -19.7389C150.422 -19.7389 149.726 -19.2289 149.13 -18.6055C148.239 -17.6746 148.045 -17.0144 148.045 -14.9112C148.045 -12.9428 147.892 -12.3504 147.383 -12.3504C146.84 -12.3504 146.72 -13.1457 146.72 -16.7374ZM152.021 -16.7374C152.021 -20.329 152.141 -21.1243 152.683 -21.1243C153.226 -21.1243 153.346 -20.329 153.346 -16.7374C153.346 -13.1457 153.226 -12.3504 152.683 -12.3504C152.141 -12.3504 152.021 -13.1457 152.021 -16.7374ZM154.695 -12.9277C154.708 -13.2451 155.789 -14.8556 157.098 -16.5065C159.478 -19.5081 159.478 -19.5081 157.296 -19.6476C155.746 -19.7467 155.113 -19.9812 155.113 -20.4557C155.113 -20.9799 155.829 -21.1243 158.426 -21.1243C160.787 -21.1243 161.736 -20.9585 161.729 -20.5471C161.723 -20.2296 160.641 -18.6191 159.323 -16.9683C156.928 -13.9667 156.928 -13.9667 159.333 -13.8282C161.079 -13.7277 161.739 -13.5061 161.739 -13.0201C161.739 -12.4909 160.998 -12.3504 158.205 -12.3504C155.66 -12.3504 154.678 -12.5119 154.695 -12.9277ZM164.296 -12.98C163.209 -13.8435 162.523 -16.0376 162.821 -17.6977C163.654 -22.3392 169.659 -22.1218 170.216 -17.43C170.348 -16.3097 170.264 -16.2715 167.371 -16.139C165.344 -16.0462 164.389 -15.817 164.389 -15.4233C164.389 -13.8197 167.303 -13.0907 168.365 -14.4285C168.986 -15.211 170.132 -15.3607 170.132 -14.6594C170.132 -14.4054 169.734 -13.782 169.248 -13.274C168.226 -12.205 165.477 -12.0418 164.296 -12.98ZM168.496 -17.7216C168.65 -17.882 168.577 -18.4015 168.334 -18.8761C167.538 -20.4309 164.389 -19.7558 164.389 -18.0304C164.389 -17.4091 167.942 -17.1421 168.496 -17.7216ZM172.372 -13.5672C170.973 -15.4273 171.012 -18.4557 172.457 -20.0853C173.481 -21.2408 176.199 -21.5239 177.111 -20.5702C177.523 -20.1392 177.641 -20.4983 177.641 -22.1864C177.641 -23.8078 177.809 -24.3568 178.304 -24.3568C178.859 -24.3568 178.966 -23.3819 178.966 -18.3536C178.966 -13.3253 178.859 -12.3504 178.304 -12.3504C177.939 -12.3504 177.641 -12.5998 177.641 -12.9046C177.641 -13.3356 177.523 -13.3356 177.111 -12.9046C176.819 -12.5998 175.84 -12.3504 174.934 -12.3504C173.682 -12.3504 173.069 -12.6415 172.372 -13.5672ZM176.833 -14.5C178.475 -16.0535 177.388 -19.7389 175.288 -19.7389C173.107 -19.7389 172.058 -16.8685 173.47 -14.7621C174.284 -13.5468 175.708 -13.4358 176.833 -14.5ZM185.592 -18.3536C185.592 -24.3568 185.592 -24.3568 189.077 -24.3568C191.805 -24.3568 192.78 -24.1719 193.568 -23.5052C194.777 -22.4816 194.925 -20.0616 193.847 -18.9348C193.233 -18.293 193.212 -18.0626 193.714 -17.456C194.04 -17.0607 194.43 -15.7503 194.579 -14.5439C194.819 -12.6155 194.753 -12.3504 194.035 -12.3504C193.414 -12.3504 193.16 -12.7992 192.978 -14.2157C192.638 -16.8666 192.031 -17.43 189.513 -17.43C187.359 -17.43 187.359 -17.43 187.359 -14.8902C187.359 -12.6583 187.252 -12.3504 186.475 -12.3504C185.637 -12.3504 185.592 -12.6583 185.592 -18.3536ZM192.12 -19.5342C194.212 -21.0663 192.78 -22.9714 189.536 -22.9714C187.359 -22.9714 187.359 -22.9714 187.359 -20.8934C187.359 -18.8154 187.359 -18.8154 189.248 -18.8154C190.288 -18.8154 191.58 -19.1389 192.12 -19.5342ZM197.341 -13.2244C194.792 -16.169 196.283 -21.1243 199.719 -21.1243C201.667 -21.1243 203.253 -19.6056 203.39 -17.6103C203.482 -16.2756 203.482 -16.2756 200.5 -16.139C197.423 -15.9981 197.023 -15.7051 198.213 -14.4614C199.092 -13.5428 200.778 -13.5258 201.494 -14.4285C202.194 -15.3101 203.261 -15.3259 203.261 -14.4546C203.261 -12.5292 198.753 -11.5925 197.341 -13.2244ZM201.936 -18.0304C201.936 -19.7558 198.787 -20.4309 197.991 -18.8761C197.391 -17.7039 197.776 -17.43 200.022 -17.43C201.298 -17.43 201.936 -17.6301 201.936 -18.0304ZM205.317 -13.1949C204.915 -13.6594 204.586 -14.2828 204.586 -14.5803C204.586 -15.3567 205.703 -15.247 206.372 -14.4049C207.131 -13.4481 209.61 -13.6959 209.8 -14.7477C209.904 -15.3207 209.435 -15.6801 208.037 -16.0972C205.805 -16.7634 204.586 -17.7237 204.586 -18.8154C204.586 -21.0927 209.192 -22.0874 210.525 -20.098C210.903 -19.5335 211.212 -18.9101 211.212 -18.7126C211.212 -18.0956 210.022 -18.3204 209.445 -19.0463C209.143 -19.4272 208.309 -19.7389 207.592 -19.7389C205.516 -19.7389 206.166 -18.2862 208.564 -17.5644C211.579 -16.6571 212.428 -15.0067 210.77 -13.274C209.595 -12.045 206.354 -11.998 205.317 -13.1949ZM213.657 -13.0934C212.688 -14.1063 212.675 -21.1243 213.642 -21.1243C214.166 -21.1243 214.304 -20.4675 214.304 -17.9842C214.304 -14.6609 214.737 -13.7358 216.292 -13.7358C217.847 -13.7358 218.28 -14.6609 218.28 -17.9842C218.28 -20.8164 218.366 -21.1243 219.163 -21.1243C219.984 -21.1243 220.047 -20.8164 220.047 -16.8055C220.047 -12.4867 220.047 -12.4867 217.19 -12.4358C215.161 -12.3997 214.138 -12.59 213.657 -13.0934ZM221.814 -18.3536C221.814 -23.3819 221.921 -24.3568 222.476 -24.3568C223.031 -24.3568 223.139 -23.3819 223.139 -18.3536C223.139 -13.3253 223.031 -12.3504 222.476 -12.3504C221.921 -12.3504 221.814 -13.3253 221.814 -18.3536ZM226.319 -12.9046C226.011 -13.2269 225.789 -14.7722 225.789 -16.5988C225.789 -19.0822 225.651 -19.7389 225.127 -19.7389C224.762 -19.7389 224.464 -20.0506 224.464 -20.4316C224.464 -20.8126 224.762 -21.1243 225.127 -21.1243C225.568 -21.1243 225.789 -21.5861 225.789 -22.5096C225.789 -23.4332 226.01 -23.895 226.452 -23.895C226.893 -23.895 227.114 -23.4332 227.114 -22.5096C227.114 -21.4321 227.311 -21.1243 227.998 -21.1243C228.489 -21.1243 228.881 -20.8164 228.881 -20.4316C228.881 -20.0468 228.489 -19.7389 227.998 -19.7389C227.211 -19.7389 227.114 -19.4311 227.114 -16.925C227.114 -14.4995 227.236 -14.0778 227.998 -13.8696C228.484 -13.7368 228.881 -13.3406 228.881 -12.9893C228.881 -12.2023 227.049 -12.1418 226.319 -12.9046ZM152.021 -23.4332C152.021 -23.9463 152.315 -24.3568 152.683 -24.3568C153.052 -24.3568 153.346 -23.9463 153.346 -23.4332C153.346 -22.9201 153.052 -22.5096 152.683 -22.5096C152.315 -22.5096 152.021 -22.9201 152.021 -23.4332Z" fill="black"/>
</g>
</g>
<defs>
<clipPath id="clip0_329_8">
<rect width="334" height="387" fill="white"/>
</clipPath>
</defs>
</svg>
